<mxfile host="app.diagrams.net" modified="2024-07-12T22:05:52.209Z" agent="Mozilla/5.0 (Windows NT 10.0; Win64; x64) AppleWebKit/537.36 (KHTML, like Gecko) Chrome/126.0.0.0 Safari/537.36 Edg/126.0.0.0" etag="chg-veiesDFO4pxR_5RZ" version="24.6.5" type="google">
  <diagram name="Page-1" id="KKpVlplfhAXHkbbhqOXX">
    <mxGraphModel grid="0" page="0" gridSize="10" guides="1" tooltips="1" connect="1" arrows="1" fold="1" pageScale="1" pageWidth="1100" pageHeight="850" math="0" shadow="0">
      <root>
        <mxCell id="0" />
        <mxCell id="1" parent="0" />
        <mxCell id="XjK1QP2siqseIX729GZj-647" style="edgeStyle=orthogonalEdgeStyle;rounded=0;orthogonalLoop=1;jettySize=auto;html=1;entryX=0.75;entryY=0;entryDx=0;entryDy=0;" edge="1" parent="1">
          <mxGeometry relative="1" as="geometry">
            <mxPoint x="-401" y="40" as="sourcePoint" />
            <Array as="points">
              <mxPoint x="-401" y="40" />
            </Array>
            <mxPoint x="-401" y="80.13" as="targetPoint" />
          </mxGeometry>
        </mxCell>
        <mxCell id="XjK1QP2siqseIX729GZj-649" style="edgeStyle=orthogonalEdgeStyle;rounded=0;orthogonalLoop=1;jettySize=auto;html=1;exitX=1;exitY=0.25;exitDx=0;exitDy=0;" edge="1" parent="1" source="XjK1QP2siqseIX729GZj-673" target="XjK1QP2siqseIX729GZj-652">
          <mxGeometry relative="1" as="geometry">
            <mxPoint x="-407" y="291" as="targetPoint" />
            <mxPoint x="-407" y="331" as="sourcePoint" />
            <Array as="points">
              <mxPoint x="-600" y="310" />
              <mxPoint x="-600" y="280" />
              <mxPoint x="-410" y="280" />
            </Array>
          </mxGeometry>
        </mxCell>
        <mxCell id="XjK1QP2siqseIX729GZj-650" style="edgeStyle=orthogonalEdgeStyle;rounded=0;orthogonalLoop=1;jettySize=auto;html=1;entryX=0.75;entryY=1;entryDx=0;entryDy=0;exitX=0.152;exitY=0.993;exitDx=0;exitDy=0;exitPerimeter=0;" edge="1" parent="1" source="XjK1QP2siqseIX729GZj-683" target="XjK1QP2siqseIX729GZj-652">
          <mxGeometry relative="1" as="geometry">
            <mxPoint x="-230" y="250" as="sourcePoint" />
            <Array as="points">
              <mxPoint x="-70" y="199" />
              <mxPoint x="-70" y="240" />
              <mxPoint x="-380" y="240" />
            </Array>
          </mxGeometry>
        </mxCell>
        <mxCell id="XjK1QP2siqseIX729GZj-651" style="edgeStyle=orthogonalEdgeStyle;rounded=0;orthogonalLoop=1;jettySize=auto;html=1;exitX=0.25;exitY=0;exitDx=0;exitDy=0;entryX=1;entryY=0.25;entryDx=0;entryDy=0;" edge="1" parent="1" source="XjK1QP2siqseIX729GZj-652" target="XjK1QP2siqseIX729GZj-662">
          <mxGeometry relative="1" as="geometry">
            <Array as="points">
              <mxPoint x="-420" y="60" />
              <mxPoint x="-560" y="60" />
              <mxPoint x="-560" y="110" />
            </Array>
          </mxGeometry>
        </mxCell>
        <mxCell id="DF9lUOYaFaJKa1eaZOuU-1" style="edgeStyle=orthogonalEdgeStyle;rounded=0;orthogonalLoop=1;jettySize=auto;html=1;exitX=0.75;exitY=0;exitDx=0;exitDy=0;entryX=0.127;entryY=0.012;entryDx=0;entryDy=0;entryPerimeter=0;" edge="1" parent="1" source="XjK1QP2siqseIX729GZj-652" target="XjK1QP2siqseIX729GZj-683">
          <mxGeometry relative="1" as="geometry">
            <Array as="points">
              <mxPoint x="-380" y="40" />
              <mxPoint x="-70" y="40" />
            </Array>
          </mxGeometry>
        </mxCell>
        <mxCell id="XjK1QP2siqseIX729GZj-652" value="saw counter 0" style="rounded=0;whiteSpace=wrap;html=1;" vertex="1" parent="1">
          <mxGeometry x="-440" y="80.13" width="80" height="120" as="geometry" />
        </mxCell>
        <mxCell id="XjK1QP2siqseIX729GZj-653" value="" style="ellipse;whiteSpace=wrap;html=1;aspect=fixed;" vertex="1" parent="1">
          <mxGeometry x="-430" y="200.13" width="10" height="10" as="geometry" />
        </mxCell>
        <mxCell id="XjK1QP2siqseIX729GZj-654" value="" style="triangle;whiteSpace=wrap;html=1;" vertex="1" parent="1">
          <mxGeometry x="-440" y="180.13" width="10" height="9.87" as="geometry" />
        </mxCell>
        <mxCell id="XjK1QP2siqseIX729GZj-655" value="new_max" style="text;html=1;align=center;verticalAlign=middle;resizable=0;points=[];autosize=1;strokeColor=none;fillColor=none;" vertex="1" parent="1">
          <mxGeometry x="-515" y="140.13" width="70" height="30" as="geometry" />
        </mxCell>
        <mxCell id="XjK1QP2siqseIX729GZj-656" value="19:0" style="text;html=1;align=center;verticalAlign=middle;resizable=0;points=[];autosize=1;strokeColor=none;fillColor=none;" vertex="1" parent="1">
          <mxGeometry x="-505" y="170.13" width="50" height="30" as="geometry" />
        </mxCell>
        <mxCell id="XjK1QP2siqseIX729GZj-657" value="" style="verticalLabelPosition=bottom;shadow=0;dashed=0;align=center;html=1;verticalAlign=top;shape=mxgraph.electrical.transmission.bus_width;pointerEvents=1;" vertex="1" parent="1">
          <mxGeometry x="-490" y="160.13" width="20" height="20" as="geometry" />
        </mxCell>
        <mxCell id="XjK1QP2siqseIX729GZj-658" value="avail[0]" style="text;html=1;align=center;verticalAlign=middle;resizable=0;points=[];autosize=1;strokeColor=none;fillColor=none;" vertex="1" parent="1">
          <mxGeometry x="-510" y="30.129999999999995" width="60" height="30" as="geometry" />
        </mxCell>
        <mxCell id="XjK1QP2siqseIX729GZj-659" value="start[0]" style="text;html=1;align=center;verticalAlign=middle;resizable=0;points=[];autosize=1;strokeColor=none;fillColor=none;" vertex="1" parent="1">
          <mxGeometry x="-510" y="80.13" width="60" height="30" as="geometry" />
        </mxCell>
        <mxCell id="XjK1QP2siqseIX729GZj-660" value="end" style="text;html=1;align=center;verticalAlign=middle;resizable=0;points=[];autosize=1;strokeColor=none;fillColor=none;fontStyle=0" vertex="1" parent="1">
          <mxGeometry x="-500" y="110.13" width="40" height="30" as="geometry" />
        </mxCell>
        <mxCell id="XjK1QP2siqseIX729GZj-661" style="edgeStyle=orthogonalEdgeStyle;rounded=0;orthogonalLoop=1;jettySize=auto;html=1;exitX=0.5;exitY=1;exitDx=0;exitDy=0;" edge="1" parent="1" target="XjK1QP2siqseIX729GZj-666">
          <mxGeometry relative="1" as="geometry">
            <mxPoint x="-760.310344827586" y="440" as="targetPoint" />
            <mxPoint x="-760" y="400.1299999999999" as="sourcePoint" />
            <Array as="points">
              <mxPoint x="-760" y="400" />
              <mxPoint x="-760" y="400" />
            </Array>
          </mxGeometry>
        </mxCell>
        <mxCell id="XjK1QP2siqseIX729GZj-662" value="start arbitrator" style="rounded=0;whiteSpace=wrap;html=1;" vertex="1" parent="1">
          <mxGeometry x="-800" y="80.13" width="80" height="120" as="geometry" />
        </mxCell>
        <mxCell id="XjK1QP2siqseIX729GZj-663" value="" style="ellipse;whiteSpace=wrap;html=1;aspect=fixed;" vertex="1" parent="1">
          <mxGeometry x="-790" y="200.13" width="10" height="10" as="geometry" />
        </mxCell>
        <mxCell id="XjK1QP2siqseIX729GZj-664" value="" style="triangle;whiteSpace=wrap;html=1;" vertex="1" parent="1">
          <mxGeometry x="-800" y="180.13" width="10" height="9.87" as="geometry" />
        </mxCell>
        <mxCell id="XjK1QP2siqseIX729GZj-665" style="edgeStyle=orthogonalEdgeStyle;rounded=0;orthogonalLoop=1;jettySize=auto;html=1;exitX=1;exitY=0.5;exitDx=0;exitDy=0;entryX=0;entryY=0.75;entryDx=0;entryDy=0;" edge="1" parent="1" source="XjK1QP2siqseIX729GZj-666" target="XjK1QP2siqseIX729GZj-652">
          <mxGeometry relative="1" as="geometry">
            <mxPoint x="-640" y="540" as="targetPoint" />
            <Array as="points">
              <mxPoint x="-620" y="540" />
              <mxPoint x="-620" y="260" />
              <mxPoint x="-500" y="260" />
              <mxPoint x="-500" y="170" />
            </Array>
          </mxGeometry>
        </mxCell>
        <mxCell id="XjK1QP2siqseIX729GZj-666" value="&lt;div&gt;&lt;br&gt;&lt;/div&gt;&lt;div&gt;&lt;br&gt;&lt;/div&gt;&lt;div&gt;max lookup table&lt;/div&gt;" style="rounded=0;whiteSpace=wrap;html=1;" vertex="1" parent="1">
          <mxGeometry x="-800" y="480.13" width="80" height="120" as="geometry" />
        </mxCell>
        <mxCell id="XjK1QP2siqseIX729GZj-667" value="avail" style="text;html=1;align=center;verticalAlign=middle;resizable=0;points=[];autosize=1;strokeColor=none;fillColor=none;" vertex="1" parent="1">
          <mxGeometry x="-705" y="80.13" width="50" height="30" as="geometry" />
        </mxCell>
        <mxCell id="XjK1QP2siqseIX729GZj-668" value="note" style="text;html=1;align=center;verticalAlign=middle;resizable=0;points=[];autosize=1;strokeColor=none;fillColor=none;" vertex="1" parent="1">
          <mxGeometry x="-765" y="450.13" width="50" height="30" as="geometry" />
        </mxCell>
        <mxCell id="XjK1QP2siqseIX729GZj-669" value="start" style="text;html=1;align=center;verticalAlign=middle;resizable=0;points=[];autosize=1;strokeColor=none;fillColor=none;" vertex="1" parent="1">
          <mxGeometry x="-705" y="140.13" width="50" height="30" as="geometry" />
        </mxCell>
        <mxCell id="XjK1QP2siqseIX729GZj-670" style="edgeStyle=orthogonalEdgeStyle;rounded=0;orthogonalLoop=1;jettySize=auto;html=1;exitX=1;exitY=0.5;exitDx=0;exitDy=0;entryX=0;entryY=0.5;entryDx=0;entryDy=0;" edge="1" parent="1" target="XjK1QP2siqseIX729GZj-652">
          <mxGeometry relative="1" as="geometry">
            <mxPoint x="-640" y="361" as="targetPoint" />
            <Array as="points">
              <mxPoint x="-720" y="341" />
              <mxPoint x="-640" y="341" />
              <mxPoint x="-640" y="240" />
              <mxPoint x="-520" y="240" />
              <mxPoint x="-520" y="140" />
            </Array>
            <mxPoint x="-720" y="361" as="sourcePoint" />
          </mxGeometry>
        </mxCell>
        <mxCell id="XjK1QP2siqseIX729GZj-671" style="edgeStyle=orthogonalEdgeStyle;rounded=0;orthogonalLoop=1;jettySize=auto;html=1;exitX=0.5;exitY=0;exitDx=0;exitDy=0;entryX=0.5;entryY=1;entryDx=0;entryDy=0;" edge="1" parent="1" source="XjK1QP2siqseIX729GZj-673" target="XjK1QP2siqseIX729GZj-662">
          <mxGeometry relative="1" as="geometry" />
        </mxCell>
        <mxCell id="XjK1QP2siqseIX729GZj-672" style="edgeStyle=orthogonalEdgeStyle;rounded=0;orthogonalLoop=1;jettySize=auto;html=1;exitX=0;exitY=0.5;exitDx=0;exitDy=0;entryX=0;entryY=0.5;entryDx=0;entryDy=0;" edge="1" parent="1" target="XjK1QP2siqseIX729GZj-673">
          <mxGeometry relative="1" as="geometry">
            <mxPoint x="-880" y="340.33333333333337" as="sourcePoint" />
            <Array as="points">
              <mxPoint x="-880" y="340" />
              <mxPoint x="-880" y="340" />
            </Array>
          </mxGeometry>
        </mxCell>
        <mxCell id="Rfu2smVh-OJppRVmdiNi-1" style="edgeStyle=orthogonalEdgeStyle;rounded=0;orthogonalLoop=1;jettySize=auto;html=1;exitX=1;exitY=0.75;exitDx=0;exitDy=0;" edge="1" parent="1">
          <mxGeometry relative="1" as="geometry">
            <mxPoint x="-65" y="480" as="targetPoint" />
            <mxPoint x="-720" y="371.1299999999999" as="sourcePoint" />
            <Array as="points">
              <mxPoint x="-588" y="371" />
              <mxPoint x="-588" y="291" />
              <mxPoint x="-170" y="291" />
              <mxPoint x="-170" y="325" />
              <mxPoint x="-65" y="325" />
            </Array>
          </mxGeometry>
        </mxCell>
        <mxCell id="Rfu2smVh-OJppRVmdiNi-17" style="edgeStyle=orthogonalEdgeStyle;rounded=0;orthogonalLoop=1;jettySize=auto;html=1;exitX=0.75;exitY=0;exitDx=0;exitDy=0;" edge="1" parent="1" source="XjK1QP2siqseIX729GZj-673">
          <mxGeometry relative="1" as="geometry">
            <mxPoint x="-440" y="194" as="targetPoint" />
            <Array as="points">
              <mxPoint x="-740" y="263" />
              <mxPoint x="-660" y="263" />
              <mxPoint x="-660" y="223" />
              <mxPoint x="-479" y="223" />
              <mxPoint x="-479" y="194" />
            </Array>
          </mxGeometry>
        </mxCell>
        <mxCell id="XjK1QP2siqseIX729GZj-673" value="midi decoder" style="rounded=0;whiteSpace=wrap;html=1;" vertex="1" parent="1">
          <mxGeometry x="-800" y="280.13" width="80" height="120" as="geometry" />
        </mxCell>
        <mxCell id="XjK1QP2siqseIX729GZj-674" value="" style="ellipse;whiteSpace=wrap;html=1;aspect=fixed;" vertex="1" parent="1">
          <mxGeometry x="-790" y="400.13" width="10" height="10" as="geometry" />
        </mxCell>
        <mxCell id="XjK1QP2siqseIX729GZj-675" value="" style="triangle;whiteSpace=wrap;html=1;" vertex="1" parent="1">
          <mxGeometry x="-800" y="380.13" width="10" height="9.87" as="geometry" />
        </mxCell>
        <mxCell id="XjK1QP2siqseIX729GZj-676" value="start_pulse" style="text;html=1;align=center;verticalAlign=middle;resizable=0;points=[];autosize=1;strokeColor=none;fillColor=none;" vertex="1" parent="1">
          <mxGeometry x="-766" y="200.13" width="80" height="30" as="geometry" />
        </mxCell>
        <mxCell id="XjK1QP2siqseIX729GZj-677" value="end" style="text;html=1;align=center;verticalAlign=middle;resizable=0;points=[];autosize=1;strokeColor=none;fillColor=none;fontStyle=0" vertex="1" parent="1">
          <mxGeometry x="-705" y="318.13" width="40" height="30" as="geometry" />
        </mxCell>
        <mxCell id="XjK1QP2siqseIX729GZj-678" value="dataOut" style="text;html=1;align=center;verticalAlign=middle;resizable=0;points=[];autosize=1;strokeColor=none;fillColor=none;" vertex="1" parent="1">
          <mxGeometry x="-870" y="312.13" width="60" height="26" as="geometry" />
        </mxCell>
        <mxCell id="XjK1QP2siqseIX729GZj-679" style="edgeStyle=orthogonalEdgeStyle;rounded=0;orthogonalLoop=1;jettySize=auto;html=1;exitX=1;exitY=0.75;exitDx=0;exitDy=0;entryX=0;entryY=0.75;entryDx=0;entryDy=0;" edge="1" parent="1" source="XjK1QP2siqseIX729GZj-683" target="XjK1QP2siqseIX729GZj-686">
          <mxGeometry relative="1" as="geometry" />
        </mxCell>
        <mxCell id="XjK1QP2siqseIX729GZj-680" style="edgeStyle=orthogonalEdgeStyle;rounded=0;orthogonalLoop=1;jettySize=auto;html=1;exitX=1;exitY=0.25;exitDx=0;exitDy=0;entryX=0;entryY=0.25;entryDx=0;entryDy=0;" edge="1" parent="1" source="XjK1QP2siqseIX729GZj-683" target="XjK1QP2siqseIX729GZj-686">
          <mxGeometry relative="1" as="geometry" />
        </mxCell>
        <mxCell id="XjK1QP2siqseIX729GZj-682" style="edgeStyle=orthogonalEdgeStyle;rounded=0;orthogonalLoop=1;jettySize=auto;html=1;exitX=0.25;exitY=1;exitDx=0;exitDy=0;entryX=0.25;entryY=0;entryDx=0;entryDy=0;" edge="1" parent="1">
          <mxGeometry relative="1" as="geometry">
            <mxPoint x="-35" y="200" as="sourcePoint" />
            <mxPoint x="-35" y="480.1299999999999" as="targetPoint" />
          </mxGeometry>
        </mxCell>
        <mxCell id="DF9lUOYaFaJKa1eaZOuU-8" style="edgeStyle=orthogonalEdgeStyle;rounded=0;orthogonalLoop=1;jettySize=auto;html=1;exitX=0.25;exitY=1;exitDx=0;exitDy=0;entryX=0.25;entryY=0;entryDx=0;entryDy=0;" edge="1" parent="1">
          <mxGeometry relative="1" as="geometry">
            <mxPoint x="-49" y="200" as="sourcePoint" />
            <mxPoint x="-49" y="480.1299999999999" as="targetPoint" />
          </mxGeometry>
        </mxCell>
        <mxCell id="XjK1QP2siqseIX729GZj-683" value="&lt;div&gt;&lt;br&gt;&lt;/div&gt;&lt;div&gt;&lt;br&gt;&lt;/div&gt;&lt;div&gt;&lt;br&gt;&lt;/div&gt;&lt;div&gt;osc selector&lt;br&gt;&lt;/div&gt;" style="rounded=0;whiteSpace=wrap;html=1;" vertex="1" parent="1">
          <mxGeometry x="-80" y="80" width="80" height="120" as="geometry" />
        </mxCell>
        <mxCell id="XjK1QP2siqseIX729GZj-684" style="edgeStyle=orthogonalEdgeStyle;rounded=0;orthogonalLoop=1;jettySize=auto;html=1;exitX=1;exitY=0.75;exitDx=0;exitDy=0;entryX=0.5;entryY=0;entryDx=0;entryDy=0;" edge="1" parent="1" source="XjK1QP2siqseIX729GZj-686" target="XjK1QP2siqseIX729GZj-701">
          <mxGeometry relative="1" as="geometry" />
        </mxCell>
        <mxCell id="XjK1QP2siqseIX729GZj-685" style="edgeStyle=orthogonalEdgeStyle;rounded=0;orthogonalLoop=1;jettySize=auto;html=1;exitX=1;exitY=0.5;exitDx=0;exitDy=0;entryX=0;entryY=0.5;entryDx=0;entryDy=0;" edge="1" parent="1" source="XjK1QP2siqseIX729GZj-686" target="XjK1QP2siqseIX729GZj-691">
          <mxGeometry relative="1" as="geometry" />
        </mxCell>
        <mxCell id="XjK1QP2siqseIX729GZj-686" value="&lt;div&gt;&lt;br&gt;&lt;/div&gt;&lt;div&gt;&lt;br&gt;&lt;/div&gt;&lt;div&gt;&lt;br&gt;&lt;/div&gt;&lt;div&gt;normalizer&lt;/div&gt;" style="rounded=0;whiteSpace=wrap;html=1;" vertex="1" parent="1">
          <mxGeometry x="80" y="80" width="80" height="120" as="geometry" />
        </mxCell>
        <mxCell id="XjK1QP2siqseIX729GZj-687" value="" style="ellipse;whiteSpace=wrap;html=1;aspect=fixed;" vertex="1" parent="1">
          <mxGeometry x="90" y="200" width="10" height="10" as="geometry" />
        </mxCell>
        <mxCell id="XjK1QP2siqseIX729GZj-688" value="" style="triangle;whiteSpace=wrap;html=1;" vertex="1" parent="1">
          <mxGeometry x="80" y="180" width="10" height="9.87" as="geometry" />
        </mxCell>
        <mxCell id="XjK1QP2siqseIX729GZj-689" style="edgeStyle=orthogonalEdgeStyle;rounded=0;orthogonalLoop=1;jettySize=auto;html=1;exitX=1;exitY=0.5;exitDx=0;exitDy=0;entryX=0;entryY=0.5;entryDx=0;entryDy=0;" edge="1" parent="1" target="XjK1QP2siqseIX729GZj-693">
          <mxGeometry relative="1" as="geometry">
            <mxPoint x="641" y="140" as="sourcePoint" />
          </mxGeometry>
        </mxCell>
        <mxCell id="XjK1QP2siqseIX729GZj-690" style="edgeStyle=orthogonalEdgeStyle;rounded=0;orthogonalLoop=1;jettySize=auto;html=1;exitX=1;exitY=0.5;exitDx=0;exitDy=0;entryX=0;entryY=0.25;entryDx=0;entryDy=0;" edge="1" parent="1" source="XjK1QP2siqseIX729GZj-691" target="XjK1QP2siqseIX729GZj-845">
          <mxGeometry relative="1" as="geometry">
            <Array as="points">
              <mxPoint x="360" y="140" />
              <mxPoint x="360" y="40" />
              <mxPoint x="520" y="40" />
              <mxPoint x="520" y="110" />
            </Array>
          </mxGeometry>
        </mxCell>
        <mxCell id="XjK1QP2siqseIX729GZj-691" value="&lt;br&gt;&lt;div&gt;&lt;br&gt;&lt;/div&gt;&lt;div&gt;&lt;br&gt;&lt;/div&gt;&lt;div&gt;shape table&lt;/div&gt;" style="rounded=0;whiteSpace=wrap;html=1;imageVerticalAlign=middle;" vertex="1" parent="1">
          <mxGeometry x="240" y="80" width="80" height="120" as="geometry" />
        </mxCell>
        <mxCell id="XjK1QP2siqseIX729GZj-692" style="edgeStyle=orthogonalEdgeStyle;rounded=0;orthogonalLoop=1;jettySize=auto;html=1;exitX=1;exitY=0.5;exitDx=0;exitDy=0;entryX=0;entryY=0.5;entryDx=0;entryDy=0;" edge="1" parent="1" source="XjK1QP2siqseIX729GZj-693" target="XjK1QP2siqseIX729GZj-710">
          <mxGeometry relative="1" as="geometry" />
        </mxCell>
        <mxCell id="XjK1QP2siqseIX729GZj-693" value="&lt;div&gt;&lt;br&gt;&lt;/div&gt;&lt;div&gt;&lt;br&gt;&lt;/div&gt;&lt;div&gt;&lt;br&gt;&lt;/div&gt;&lt;div&gt;accumulator&lt;/div&gt;" style="rounded=0;whiteSpace=wrap;html=1;" vertex="1" parent="1">
          <mxGeometry x="721" y="80" width="80" height="120" as="geometry" />
        </mxCell>
        <mxCell id="XjK1QP2siqseIX729GZj-694" value="" style="ellipse;whiteSpace=wrap;html=1;aspect=fixed;" vertex="1" parent="1">
          <mxGeometry x="731" y="200" width="10" height="10" as="geometry" />
        </mxCell>
        <mxCell id="XjK1QP2siqseIX729GZj-695" value="" style="triangle;whiteSpace=wrap;html=1;" vertex="1" parent="1">
          <mxGeometry x="721" y="180" width="10" height="9.87" as="geometry" />
        </mxCell>
        <mxCell id="XjK1QP2siqseIX729GZj-696" style="edgeStyle=orthogonalEdgeStyle;rounded=0;orthogonalLoop=1;jettySize=auto;html=1;exitX=0;exitY=0.5;exitDx=0;exitDy=0;entryX=0.5;entryY=1;entryDx=0;entryDy=0;" edge="1" parent="1">
          <mxGeometry relative="1" as="geometry">
            <mxPoint x="193.99999999999955" y="339.9999999999998" as="sourcePoint" />
            <mxPoint x="-6" y="199.99999999999977" as="targetPoint" />
            <Array as="points">
              <mxPoint x="-6" y="340" />
            </Array>
          </mxGeometry>
        </mxCell>
        <mxCell id="XjK1QP2siqseIX729GZj-697" style="edgeStyle=orthogonalEdgeStyle;rounded=0;orthogonalLoop=1;jettySize=auto;html=1;exitX=0;exitY=0.25;exitDx=0;exitDy=0;entryX=0.5;entryY=1;entryDx=0;entryDy=0;" edge="1" parent="1" source="XjK1QP2siqseIX729GZj-701" target="XjK1QP2siqseIX729GZj-686">
          <mxGeometry relative="1" as="geometry" />
        </mxCell>
        <mxCell id="XjK1QP2siqseIX729GZj-698" style="edgeStyle=orthogonalEdgeStyle;rounded=0;orthogonalLoop=1;jettySize=auto;html=1;exitX=1;exitY=0.25;exitDx=0;exitDy=0;entryX=0.5;entryY=1;entryDx=0;entryDy=0;" edge="1" parent="1" source="XjK1QP2siqseIX729GZj-701" target="XjK1QP2siqseIX729GZj-693">
          <mxGeometry relative="1" as="geometry" />
        </mxCell>
        <mxCell id="XjK1QP2siqseIX729GZj-699" style="edgeStyle=orthogonalEdgeStyle;rounded=0;orthogonalLoop=1;jettySize=auto;html=1;exitX=1;exitY=0.5;exitDx=0;exitDy=0;entryX=0.75;entryY=1;entryDx=0;entryDy=0;" edge="1" parent="1" source="XjK1QP2siqseIX729GZj-701" target="XjK1QP2siqseIX729GZj-693">
          <mxGeometry relative="1" as="geometry" />
        </mxCell>
        <mxCell id="XjK1QP2siqseIX729GZj-700" style="edgeStyle=orthogonalEdgeStyle;rounded=0;orthogonalLoop=1;jettySize=auto;html=1;exitX=1;exitY=0.75;exitDx=0;exitDy=0;entryX=0.5;entryY=1;entryDx=0;entryDy=0;" edge="1" parent="1" source="XjK1QP2siqseIX729GZj-701" target="XjK1QP2siqseIX729GZj-710">
          <mxGeometry relative="1" as="geometry" />
        </mxCell>
        <mxCell id="XjK1QP2siqseIX729GZj-971" style="edgeStyle=orthogonalEdgeStyle;rounded=0;orthogonalLoop=1;jettySize=auto;html=1;exitX=0;exitY=0.25;exitDx=0;exitDy=0;entryX=0.879;entryY=0.01;entryDx=0;entryDy=0;entryPerimeter=0;" edge="1" parent="1" source="XjK1QP2siqseIX729GZj-701" target="XjK1QP2siqseIX729GZj-867">
          <mxGeometry relative="1" as="geometry">
            <Array as="points">
              <mxPoint x="120" y="310" />
              <mxPoint x="120" y="440" />
              <mxPoint x="-10" y="440" />
            </Array>
          </mxGeometry>
        </mxCell>
        <mxCell id="XjK1QP2siqseIX729GZj-701" value="&lt;div&gt;&lt;br&gt;&lt;/div&gt;&lt;div&gt;&lt;br&gt;&lt;/div&gt;&lt;div&gt;&lt;br&gt;&lt;/div&gt;&lt;div&gt;&lt;br&gt;&lt;/div&gt;&lt;div&gt;polyphony controller&lt;/div&gt;" style="rounded=0;whiteSpace=wrap;html=1;" vertex="1" parent="1">
          <mxGeometry x="160" y="280" width="80" height="120" as="geometry" />
        </mxCell>
        <mxCell id="XjK1QP2siqseIX729GZj-702" value="" style="ellipse;whiteSpace=wrap;html=1;aspect=fixed;" vertex="1" parent="1">
          <mxGeometry x="170" y="400" width="10" height="10" as="geometry" />
        </mxCell>
        <mxCell id="XjK1QP2siqseIX729GZj-703" value="" style="triangle;whiteSpace=wrap;html=1;" vertex="1" parent="1">
          <mxGeometry x="160" y="380" width="10" height="9.87" as="geometry" />
        </mxCell>
        <mxCell id="XjK1QP2siqseIX729GZj-704" value="osc_num" style="text;html=1;align=center;verticalAlign=middle;resizable=0;points=[];autosize=1;strokeColor=none;fillColor=none;" vertex="1" parent="1">
          <mxGeometry x="45" y="310.13" width="70" height="30" as="geometry" />
        </mxCell>
        <mxCell id="XjK1QP2siqseIX729GZj-705" value="start" style="text;html=1;align=center;verticalAlign=middle;resizable=0;points=[];autosize=1;strokeColor=none;fillColor=none;" vertex="1" parent="1">
          <mxGeometry x="115" y="280.13" width="50" height="30" as="geometry" />
        </mxCell>
        <mxCell id="XjK1QP2siqseIX729GZj-706" value="ready" style="text;html=1;align=center;verticalAlign=middle;resizable=0;points=[];autosize=1;strokeColor=none;fillColor=none;" vertex="1" parent="1">
          <mxGeometry x="155" y="170.13" width="50" height="30" as="geometry" />
        </mxCell>
        <mxCell id="XjK1QP2siqseIX729GZj-707" value="acc" style="text;html=1;align=center;verticalAlign=middle;resizable=0;points=[];autosize=1;strokeColor=none;fillColor=none;" vertex="1" parent="1">
          <mxGeometry x="240" y="280.13" width="40" height="30" as="geometry" />
        </mxCell>
        <mxCell id="XjK1QP2siqseIX729GZj-708" value="clr" style="text;html=1;align=center;verticalAlign=middle;resizable=0;points=[];autosize=1;strokeColor=none;fillColor=none;" vertex="1" parent="1">
          <mxGeometry x="240" y="310.13" width="40" height="30" as="geometry" />
        </mxCell>
        <mxCell id="XjK1QP2siqseIX729GZj-709" style="edgeStyle=orthogonalEdgeStyle;rounded=0;orthogonalLoop=1;jettySize=auto;html=1;exitX=1;exitY=0.5;exitDx=0;exitDy=0;" edge="1" parent="1" source="XjK1QP2siqseIX729GZj-710">
          <mxGeometry relative="1" as="geometry">
            <mxPoint x="1041" y="139.9310344827586" as="targetPoint" />
          </mxGeometry>
        </mxCell>
        <mxCell id="XjK1QP2siqseIX729GZj-710" value="&lt;div&gt;&lt;br&gt;&lt;/div&gt;&lt;div&gt;&lt;br&gt;&lt;/div&gt;&lt;div&gt;&lt;br&gt;&lt;/div&gt;&lt;div&gt;&lt;br&gt;&lt;/div&gt;&lt;div&gt;sample register&lt;br&gt;&lt;/div&gt;" style="rounded=0;whiteSpace=wrap;html=1;" vertex="1" parent="1">
          <mxGeometry x="881" y="80" width="80" height="120" as="geometry" />
        </mxCell>
        <mxCell id="XjK1QP2siqseIX729GZj-711" value="store_samp" style="text;html=1;align=center;verticalAlign=middle;resizable=0;points=[];autosize=1;strokeColor=none;fillColor=none;" vertex="1" parent="1">
          <mxGeometry x="235" y="340.13" width="90" height="30" as="geometry" />
        </mxCell>
        <mxCell id="XjK1QP2siqseIX729GZj-712" value="" style="ellipse;whiteSpace=wrap;html=1;aspect=fixed;" vertex="1" parent="1">
          <mxGeometry x="891" y="200" width="10" height="10" as="geometry" />
        </mxCell>
        <mxCell id="XjK1QP2siqseIX729GZj-713" value="" style="triangle;whiteSpace=wrap;html=1;" vertex="1" parent="1">
          <mxGeometry x="881" y="180" width="10" height="9.87" as="geometry" />
        </mxCell>
        <mxCell id="XjK1QP2siqseIX729GZj-714" value="max_sel" style="text;html=1;align=center;verticalAlign=middle;resizable=0;points=[];autosize=1;strokeColor=none;fillColor=none;" vertex="1" parent="1">
          <mxGeometry x="5" y="140.13" width="70" height="30" as="geometry" />
        </mxCell>
        <mxCell id="XjK1QP2siqseIX729GZj-715" value="19:0" style="text;html=1;align=center;verticalAlign=middle;resizable=0;points=[];autosize=1;strokeColor=none;fillColor=none;" vertex="1" parent="1">
          <mxGeometry x="15" y="170.13" width="50" height="30" as="geometry" />
        </mxCell>
        <mxCell id="XjK1QP2siqseIX729GZj-716" value="" style="verticalLabelPosition=bottom;shadow=0;dashed=0;align=center;html=1;verticalAlign=top;shape=mxgraph.electrical.transmission.bus_width;pointerEvents=1;" vertex="1" parent="1">
          <mxGeometry x="30" y="160.13" width="20" height="20" as="geometry" />
        </mxCell>
        <mxCell id="XjK1QP2siqseIX729GZj-717" value="count_nm" style="text;html=1;align=center;verticalAlign=middle;resizable=0;points=[];autosize=1;strokeColor=none;fillColor=none;" vertex="1" parent="1">
          <mxGeometry x="160" y="110.13" width="80" height="30" as="geometry" />
        </mxCell>
        <mxCell id="XjK1QP2siqseIX729GZj-718" value="7:0" style="text;html=1;align=center;verticalAlign=middle;resizable=0;points=[];autosize=1;strokeColor=none;fillColor=none;" vertex="1" parent="1">
          <mxGeometry x="180" y="140.13" width="40" height="30" as="geometry" />
        </mxCell>
        <mxCell id="XjK1QP2siqseIX729GZj-719" value="" style="verticalLabelPosition=bottom;shadow=0;dashed=0;align=center;html=1;verticalAlign=top;shape=mxgraph.electrical.transmission.bus_width;pointerEvents=1;" vertex="1" parent="1">
          <mxGeometry x="190" y="130.13" width="20" height="20" as="geometry" />
        </mxCell>
        <mxCell id="XjK1QP2siqseIX729GZj-720" value="samp_mono" style="text;html=1;align=center;verticalAlign=middle;resizable=0;points=[];autosize=1;strokeColor=none;fillColor=none;" vertex="1" parent="1">
          <mxGeometry x="636" y="110.13" width="90" height="30" as="geometry" />
        </mxCell>
        <mxCell id="XjK1QP2siqseIX729GZj-721" value="15:7" style="text;html=1;align=center;verticalAlign=middle;resizable=0;points=[];autosize=1;strokeColor=none;fillColor=none;" vertex="1" parent="1">
          <mxGeometry x="656" y="140.13" width="50" height="30" as="geometry" />
        </mxCell>
        <mxCell id="XjK1QP2siqseIX729GZj-722" value="" style="verticalLabelPosition=bottom;shadow=0;dashed=0;align=center;html=1;verticalAlign=top;shape=mxgraph.electrical.transmission.bus_width;pointerEvents=1;" vertex="1" parent="1">
          <mxGeometry x="671" y="130.13" width="20" height="20" as="geometry" />
        </mxCell>
        <mxCell id="XjK1QP2siqseIX729GZj-723" value="samp_acc" style="text;html=1;align=center;verticalAlign=middle;resizable=0;points=[];autosize=1;strokeColor=none;fillColor=none;" vertex="1" parent="1">
          <mxGeometry x="801" y="110.13" width="80" height="30" as="geometry" />
        </mxCell>
        <mxCell id="XjK1QP2siqseIX729GZj-724" value="11:0" style="text;html=1;align=center;verticalAlign=middle;resizable=0;points=[];autosize=1;strokeColor=none;fillColor=none;" vertex="1" parent="1">
          <mxGeometry x="816" y="140.13" width="50" height="30" as="geometry" />
        </mxCell>
        <mxCell id="XjK1QP2siqseIX729GZj-725" value="" style="verticalLabelPosition=bottom;shadow=0;dashed=0;align=center;html=1;verticalAlign=top;shape=mxgraph.electrical.transmission.bus_width;pointerEvents=1;" vertex="1" parent="1">
          <mxGeometry x="831" y="130.13" width="20" height="20" as="geometry" />
        </mxCell>
        <mxCell id="XjK1QP2siqseIX729GZj-726" value="samp_out" style="text;html=1;align=center;verticalAlign=middle;resizable=0;points=[];autosize=1;strokeColor=none;fillColor=none;" vertex="1" parent="1">
          <mxGeometry x="961" y="110.13" width="80" height="30" as="geometry" />
        </mxCell>
        <mxCell id="XjK1QP2siqseIX729GZj-727" value="11:0" style="text;html=1;align=center;verticalAlign=middle;resizable=0;points=[];autosize=1;strokeColor=none;fillColor=none;" vertex="1" parent="1">
          <mxGeometry x="976" y="140.13" width="50" height="30" as="geometry" />
        </mxCell>
        <mxCell id="XjK1QP2siqseIX729GZj-728" value="" style="verticalLabelPosition=bottom;shadow=0;dashed=0;align=center;html=1;verticalAlign=top;shape=mxgraph.electrical.transmission.bus_width;pointerEvents=1;" vertex="1" parent="1">
          <mxGeometry x="991" y="130.13" width="20" height="20" as="geometry" />
        </mxCell>
        <mxCell id="XjK1QP2siqseIX729GZj-729" value="&lt;font style=&quot;font-size: 24px;&quot;&gt;...&lt;/font&gt;" style="text;html=1;align=center;verticalAlign=middle;resizable=0;points=[];autosize=1;strokeColor=none;fillColor=none;rotation=90;" vertex="1" parent="1">
          <mxGeometry x="-420" y="561" width="40" height="40" as="geometry" />
        </mxCell>
        <mxCell id="XjK1QP2siqseIX729GZj-730" value="N-1:0" style="text;html=1;align=center;verticalAlign=middle;resizable=0;points=[];autosize=1;strokeColor=none;fillColor=none;" vertex="1" parent="1">
          <mxGeometry x="-705" y="110.13" width="50" height="30" as="geometry" />
        </mxCell>
        <mxCell id="XjK1QP2siqseIX729GZj-731" value="" style="verticalLabelPosition=bottom;shadow=0;dashed=0;align=center;html=1;verticalAlign=top;shape=mxgraph.electrical.transmission.bus_width;pointerEvents=1;" vertex="1" parent="1">
          <mxGeometry x="-690" y="100.13" width="20" height="20" as="geometry" />
        </mxCell>
        <mxCell id="XjK1QP2siqseIX729GZj-732" value="N-1:0" style="text;html=1;align=center;verticalAlign=middle;resizable=0;points=[];autosize=1;strokeColor=none;fillColor=none;" vertex="1" parent="1">
          <mxGeometry x="-705" y="170.13" width="50" height="30" as="geometry" />
        </mxCell>
        <mxCell id="XjK1QP2siqseIX729GZj-733" value="" style="verticalLabelPosition=bottom;shadow=0;dashed=0;align=center;html=1;verticalAlign=top;shape=mxgraph.electrical.transmission.bus_width;pointerEvents=1;" vertex="1" parent="1">
          <mxGeometry x="-690" y="160.13" width="20" height="20" as="geometry" />
        </mxCell>
        <mxCell id="XjK1QP2siqseIX729GZj-734" value="new_max" style="text;html=1;align=center;verticalAlign=middle;resizable=0;points=[];autosize=1;strokeColor=none;fillColor=none;" vertex="1" parent="1">
          <mxGeometry x="-715" y="510.13" width="70" height="30" as="geometry" />
        </mxCell>
        <mxCell id="XjK1QP2siqseIX729GZj-735" value="19:0" style="text;html=1;align=center;verticalAlign=middle;resizable=0;points=[];autosize=1;strokeColor=none;fillColor=none;" vertex="1" parent="1">
          <mxGeometry x="-705" y="540.13" width="50" height="30" as="geometry" />
        </mxCell>
        <mxCell id="XjK1QP2siqseIX729GZj-736" value="" style="verticalLabelPosition=bottom;shadow=0;dashed=0;align=center;html=1;verticalAlign=top;shape=mxgraph.electrical.transmission.bus_width;pointerEvents=1;" vertex="1" parent="1">
          <mxGeometry x="-690" y="530.13" width="20" height="20" as="geometry" />
        </mxCell>
        <mxCell id="XjK1QP2siqseIX729GZj-737" style="edgeStyle=orthogonalEdgeStyle;rounded=0;orthogonalLoop=1;jettySize=auto;html=1;exitX=1;exitY=0.75;exitDx=0;exitDy=0;" edge="1" parent="1" source="XjK1QP2siqseIX729GZj-662">
          <mxGeometry relative="1" as="geometry">
            <mxPoint x="-440" y="110" as="targetPoint" />
            <mxPoint x="-520" y="200" as="sourcePoint" />
            <Array as="points">
              <mxPoint x="-540" y="170" />
              <mxPoint x="-540" y="110" />
            </Array>
          </mxGeometry>
        </mxCell>
        <mxCell id="XjK1QP2siqseIX729GZj-738" value="" style="endArrow=none;dashed=1;html=1;rounded=0;" edge="1" parent="1">
          <mxGeometry width="50" height="50" relative="1" as="geometry">
            <mxPoint x="-580" y="900" as="sourcePoint" />
            <mxPoint x="-580" y="20" as="targetPoint" />
          </mxGeometry>
        </mxCell>
        <mxCell id="XjK1QP2siqseIX729GZj-739" value="" style="endArrow=none;dashed=1;html=1;rounded=0;" edge="1" parent="1">
          <mxGeometry width="50" height="50" relative="1" as="geometry">
            <mxPoint x="-220" y="900" as="sourcePoint" />
            <mxPoint x="-220" y="20" as="targetPoint" />
          </mxGeometry>
        </mxCell>
        <mxCell id="XjK1QP2siqseIX729GZj-740" value="count_sel" style="text;html=1;align=center;verticalAlign=middle;resizable=0;points=[];autosize=1;strokeColor=none;fillColor=none;" vertex="1" parent="1">
          <mxGeometry x="5" y="80.13" width="70" height="30" as="geometry" />
        </mxCell>
        <mxCell id="XjK1QP2siqseIX729GZj-741" value="19:0" style="text;html=1;align=center;verticalAlign=middle;resizable=0;points=[];autosize=1;strokeColor=none;fillColor=none;" vertex="1" parent="1">
          <mxGeometry x="15" y="110.13" width="50" height="30" as="geometry" />
        </mxCell>
        <mxCell id="XjK1QP2siqseIX729GZj-742" value="" style="verticalLabelPosition=bottom;shadow=0;dashed=0;align=center;html=1;verticalAlign=top;shape=mxgraph.electrical.transmission.bus_width;pointerEvents=1;" vertex="1" parent="1">
          <mxGeometry x="30" y="100.13" width="20" height="20" as="geometry" />
        </mxCell>
        <mxCell id="XjK1QP2siqseIX729GZj-743" value="max" style="text;html=1;align=center;verticalAlign=middle;resizable=0;points=[];autosize=1;strokeColor=none;fillColor=none;" vertex="1" parent="1">
          <mxGeometry x="-145" y="107.13" width="50" height="30" as="geometry" />
        </mxCell>
        <mxCell id="XjK1QP2siqseIX729GZj-744" value="N-1:0 19:0" style="text;html=1;align=center;verticalAlign=middle;resizable=0;points=[];autosize=1;strokeColor=none;fillColor=none;" vertex="1" parent="1">
          <mxGeometry x="-160" y="137.13" width="80" height="30" as="geometry" />
        </mxCell>
        <mxCell id="XjK1QP2siqseIX729GZj-745" value="" style="verticalLabelPosition=bottom;shadow=0;dashed=0;align=center;html=1;verticalAlign=top;shape=mxgraph.electrical.transmission.bus_width;pointerEvents=1;" vertex="1" parent="1">
          <mxGeometry x="-130" y="127.13" width="20" height="20" as="geometry" />
        </mxCell>
        <mxCell id="XjK1QP2siqseIX729GZj-746" value="count" style="text;html=1;align=center;verticalAlign=middle;resizable=0;points=[];autosize=1;strokeColor=none;fillColor=none;" vertex="1" parent="1">
          <mxGeometry x="-145" y="61.129999999999995" width="50" height="30" as="geometry" />
        </mxCell>
        <mxCell id="XjK1QP2siqseIX729GZj-747" value="N-1:0 19:0" style="text;html=1;align=center;verticalAlign=middle;resizable=0;points=[];autosize=1;strokeColor=none;fillColor=none;" vertex="1" parent="1">
          <mxGeometry x="-160" y="92.13" width="80" height="30" as="geometry" />
        </mxCell>
        <mxCell id="XjK1QP2siqseIX729GZj-748" value="" style="verticalLabelPosition=bottom;shadow=0;dashed=0;align=center;html=1;verticalAlign=top;shape=mxgraph.electrical.transmission.bus_width;pointerEvents=1;" vertex="1" parent="1">
          <mxGeometry x="-130" y="81.13" width="20" height="20" as="geometry" />
        </mxCell>
        <mxCell id="XjK1QP2siqseIX729GZj-749" style="edgeStyle=orthogonalEdgeStyle;rounded=0;orthogonalLoop=1;jettySize=auto;html=1;exitX=1;exitY=0.75;exitDx=0;exitDy=0;" edge="1" parent="1" target="XjK1QP2siqseIX729GZj-683">
          <mxGeometry relative="1" as="geometry">
            <mxPoint x="-360" y="137" as="sourcePoint" />
            <mxPoint x="-280" y="137" as="targetPoint" />
            <Array as="points">
              <mxPoint x="-360" y="138" />
              <mxPoint x="-360" y="138" />
            </Array>
          </mxGeometry>
        </mxCell>
        <mxCell id="XjK1QP2siqseIX729GZj-750" style="edgeStyle=orthogonalEdgeStyle;rounded=0;orthogonalLoop=1;jettySize=auto;html=1;exitX=1;exitY=0.25;exitDx=0;exitDy=0;endArrow=classic;endFill=1;entryX=0.001;entryY=0.097;entryDx=0;entryDy=0;entryPerimeter=0;" edge="1" parent="1" target="XjK1QP2siqseIX729GZj-683">
          <mxGeometry relative="1" as="geometry">
            <mxPoint x="-360" y="91" as="sourcePoint" />
            <mxPoint x="-160" y="90" as="targetPoint" />
            <Array as="points">
              <mxPoint x="-360" y="92" />
              <mxPoint x="-162" y="92" />
            </Array>
          </mxGeometry>
        </mxCell>
        <mxCell id="XjK1QP2siqseIX729GZj-751" value="max[0]" style="text;html=1;align=center;verticalAlign=middle;resizable=0;points=[];autosize=1;strokeColor=none;fillColor=none;" vertex="1" parent="1">
          <mxGeometry x="-350" y="107.13" width="60" height="30" as="geometry" />
        </mxCell>
        <mxCell id="XjK1QP2siqseIX729GZj-752" value="19:0" style="text;html=1;align=center;verticalAlign=middle;resizable=0;points=[];autosize=1;strokeColor=none;fillColor=none;" vertex="1" parent="1">
          <mxGeometry x="-345" y="137.13" width="50" height="30" as="geometry" />
        </mxCell>
        <mxCell id="XjK1QP2siqseIX729GZj-753" value="" style="verticalLabelPosition=bottom;shadow=0;dashed=0;align=center;html=1;verticalAlign=top;shape=mxgraph.electrical.transmission.bus_width;pointerEvents=1;" vertex="1" parent="1">
          <mxGeometry x="-330" y="127.13" width="20" height="20" as="geometry" />
        </mxCell>
        <mxCell id="XjK1QP2siqseIX729GZj-754" value="count[0]" style="text;html=1;align=center;verticalAlign=middle;resizable=0;points=[];autosize=1;strokeColor=none;fillColor=none;" vertex="1" parent="1">
          <mxGeometry x="-355" y="61.129999999999995" width="70" height="30" as="geometry" />
        </mxCell>
        <mxCell id="XjK1QP2siqseIX729GZj-755" value="19:0" style="text;html=1;align=center;verticalAlign=middle;resizable=0;points=[];autosize=1;strokeColor=none;fillColor=none;" vertex="1" parent="1">
          <mxGeometry x="-345" y="91.13" width="50" height="30" as="geometry" />
        </mxCell>
        <mxCell id="XjK1QP2siqseIX729GZj-756" value="" style="verticalLabelPosition=bottom;shadow=0;dashed=0;align=center;html=1;verticalAlign=top;shape=mxgraph.electrical.transmission.bus_width;pointerEvents=1;" vertex="1" parent="1">
          <mxGeometry x="-330" y="81.13" width="20" height="20" as="geometry" />
        </mxCell>
        <mxCell id="XjK1QP2siqseIX729GZj-757" style="edgeStyle=orthogonalEdgeStyle;rounded=0;orthogonalLoop=1;jettySize=auto;html=1;exitX=0;exitY=0.5;exitDx=0;exitDy=0;entryX=0;entryY=0.5;entryDx=0;entryDy=0;" edge="1" parent="1" target="XjK1QP2siqseIX729GZj-758">
          <mxGeometry relative="1" as="geometry">
            <mxPoint x="-1040" y="340.28571428571433" as="sourcePoint" />
            <Array as="points">
              <mxPoint x="-1040" y="340" />
              <mxPoint x="-1040" y="340" />
            </Array>
          </mxGeometry>
        </mxCell>
        <mxCell id="XjK1QP2siqseIX729GZj-758" value="&lt;div&gt;10010100&lt;br&gt;&lt;/div&gt;&lt;div&gt;&lt;br&gt;&lt;/div&gt;&lt;div&gt;UART receiver&lt;/div&gt;" style="rounded=0;whiteSpace=wrap;html=1;" vertex="1" parent="1">
          <mxGeometry x="-960" y="280.13" width="80" height="120" as="geometry" />
        </mxCell>
        <mxCell id="XjK1QP2siqseIX729GZj-759" value="" style="ellipse;whiteSpace=wrap;html=1;aspect=fixed;" vertex="1" parent="1">
          <mxGeometry x="-950" y="400.13" width="10" height="10" as="geometry" />
        </mxCell>
        <mxCell id="XjK1QP2siqseIX729GZj-760" value="" style="triangle;whiteSpace=wrap;html=1;" vertex="1" parent="1">
          <mxGeometry x="-960" y="380.13" width="10" height="9.87" as="geometry" />
        </mxCell>
        <mxCell id="XjK1QP2siqseIX729GZj-761" value="serIn" style="text;html=1;align=center;verticalAlign=middle;resizable=0;points=[];autosize=1;strokeColor=none;fillColor=none;" vertex="1" parent="1">
          <mxGeometry x="-1022" y="312.13" width="45" height="26" as="geometry" />
        </mxCell>
        <mxCell id="XjK1QP2siqseIX729GZj-762" value="7:0" style="text;html=1;align=center;verticalAlign=middle;resizable=0;points=[];autosize=1;strokeColor=none;fillColor=none;" vertex="1" parent="1">
          <mxGeometry x="-860" y="340.13" width="40" height="30" as="geometry" />
        </mxCell>
        <mxCell id="XjK1QP2siqseIX729GZj-763" value="" style="verticalLabelPosition=bottom;shadow=0;dashed=0;align=center;html=1;verticalAlign=top;shape=mxgraph.electrical.transmission.bus_width;pointerEvents=1;" vertex="1" parent="1">
          <mxGeometry x="-850" y="330.13" width="20" height="20" as="geometry" />
        </mxCell>
        <mxCell id="XjK1QP2siqseIX729GZj-764" value="" style="pointerEvents=1;verticalLabelPosition=bottom;shadow=0;dashed=0;align=center;html=1;verticalAlign=top;shape=mxgraph.electrical.waveforms.sine_wave;" vertex="1" parent="1">
          <mxGeometry x="253.75" y="85" width="52.5" height="65.13" as="geometry" />
        </mxCell>
        <mxCell id="XjK1QP2siqseIX729GZj-765" value="" style="ellipse;whiteSpace=wrap;html=1;aspect=fixed;" vertex="1" parent="1">
          <mxGeometry x="741" y="97.57" width="40" height="40" as="geometry" />
        </mxCell>
        <mxCell id="XjK1QP2siqseIX729GZj-766" value="" style="ellipse;whiteSpace=wrap;html=1;aspect=fixed;" vertex="1" parent="1">
          <mxGeometry x="100" y="97.56" width="40" height="40" as="geometry" />
        </mxCell>
        <mxCell id="XjK1QP2siqseIX729GZj-767" value="" style="ellipse;whiteSpace=wrap;html=1;aspect=fixed;" vertex="1" parent="1">
          <mxGeometry x="109.87" y="107.57" width="5.13" height="5.13" as="geometry" />
        </mxCell>
        <mxCell id="XjK1QP2siqseIX729GZj-768" value="" style="ellipse;whiteSpace=wrap;html=1;aspect=fixed;" vertex="1" parent="1">
          <mxGeometry x="125" y="122.56" width="5.13" height="5.13" as="geometry" />
        </mxCell>
        <mxCell id="XjK1QP2siqseIX729GZj-769" value="" style="pointerEvents=1;shadow=0;dashed=0;html=1;strokeColor=none;fillColor=#000000;labelPosition=center;verticalLabelPosition=bottom;verticalAlign=top;align=center;outlineConnect=0;shape=mxgraph.veeam.cpu;strokeWidth=1;" vertex="1" parent="1">
          <mxGeometry x="177.6" y="295.33" width="44.8" height="44.8" as="geometry" />
        </mxCell>
        <mxCell id="XjK1QP2siqseIX729GZj-770" value="" style="shape=flexArrow;endArrow=classic;html=1;rounded=0;" edge="1" parent="1">
          <mxGeometry width="50" height="50" relative="1" as="geometry">
            <mxPoint x="921.03" y="95.13" as="sourcePoint" />
            <mxPoint x="920.86" y="130.13" as="targetPoint" />
          </mxGeometry>
        </mxCell>
        <mxCell id="XjK1QP2siqseIX729GZj-771" value="" style="rounded=0;whiteSpace=wrap;html=1;" vertex="1" parent="1">
          <mxGeometry x="906" y="134.26" width="30" height="5.87" as="geometry" />
        </mxCell>
        <mxCell id="XjK1QP2siqseIX729GZj-772" value="" style="endArrow=none;html=1;rounded=0;" edge="1" parent="1" source="XjK1QP2siqseIX729GZj-774">
          <mxGeometry width="50" height="50" relative="1" as="geometry">
            <mxPoint x="274.15999999999997" y="142.57" as="sourcePoint" />
            <mxPoint x="273.83000000000004" y="92.57" as="targetPoint" />
            <Array as="points" />
          </mxGeometry>
        </mxCell>
        <mxCell id="XjK1QP2siqseIX729GZj-773" value="" style="endArrow=none;html=1;rounded=0;" edge="1" parent="1" target="XjK1QP2siqseIX729GZj-774">
          <mxGeometry width="50" height="50" relative="1" as="geometry">
            <mxPoint x="274.15999999999997" y="142.57" as="sourcePoint" />
            <mxPoint x="273.83000000000004" y="92.57" as="targetPoint" />
            <Array as="points" />
          </mxGeometry>
        </mxCell>
        <mxCell id="XjK1QP2siqseIX729GZj-774" value="" style="ellipse;whiteSpace=wrap;html=1;aspect=fixed;" vertex="1" parent="1">
          <mxGeometry x="271.44" y="98.56" width="5.13" height="5.13" as="geometry" />
        </mxCell>
        <mxCell id="XjK1QP2siqseIX729GZj-775" value="Mux" style="shadow=0;dashed=0;align=center;html=1;strokeWidth=1;shape=mxgraph.electrical.abstract.mux2;whiteSpace=wrap;" vertex="1" parent="1">
          <mxGeometry x="-67.5" y="91.57" width="55" height="52" as="geometry" />
        </mxCell>
        <mxCell id="XjK1QP2siqseIX729GZj-778" value="" style="shape=cross;whiteSpace=wrap;html=1;" vertex="1" parent="1">
          <mxGeometry x="746" y="102.5" width="30" height="30.13" as="geometry" />
        </mxCell>
        <mxCell id="XjK1QP2siqseIX729GZj-779" value="" style="rounded=0;whiteSpace=wrap;html=1;rotation=-45;" vertex="1" parent="1">
          <mxGeometry x="107.5" y="116.07" width="25" height="3" as="geometry" />
        </mxCell>
        <mxCell id="_PkVqTtLlogOHhefFod5-8" style="edgeStyle=orthogonalEdgeStyle;rounded=0;orthogonalLoop=1;jettySize=auto;html=1;exitX=0;exitY=0.5;exitDx=0;exitDy=0;entryX=0.5;entryY=1;entryDx=0;entryDy=0;" edge="1" parent="1" source="XjK1QP2siqseIX729GZj-781" target="XjK1QP2siqseIX729GZj-701">
          <mxGeometry relative="1" as="geometry" />
        </mxCell>
        <mxCell id="_PkVqTtLlogOHhefFod5-9" style="edgeStyle=orthogonalEdgeStyle;rounded=0;orthogonalLoop=1;jettySize=auto;html=1;exitX=0;exitY=0.5;exitDx=0;exitDy=0;entryX=1;entryY=0.5;entryDx=0;entryDy=0;" edge="1" parent="1" source="XjK1QP2siqseIX729GZj-781" target="XjK1QP2siqseIX729GZj-967">
          <mxGeometry relative="1" as="geometry" />
        </mxCell>
        <mxCell id="XjK1QP2siqseIX729GZj-781" value="&lt;div&gt;sample clock divider&amp;nbsp;&lt;/div&gt;&lt;div&gt;@44.1 kHz&lt;/div&gt;" style="rounded=0;whiteSpace=wrap;html=1;" vertex="1" parent="1">
          <mxGeometry x="240" y="480.13" width="80" height="120" as="geometry" />
        </mxCell>
        <mxCell id="XjK1QP2siqseIX729GZj-782" value="" style="ellipse;whiteSpace=wrap;html=1;aspect=fixed;" vertex="1" parent="1">
          <mxGeometry x="250" y="600.13" width="10" height="10" as="geometry" />
        </mxCell>
        <mxCell id="XjK1QP2siqseIX729GZj-783" value="" style="triangle;whiteSpace=wrap;html=1;" vertex="1" parent="1">
          <mxGeometry x="240" y="580.13" width="10" height="9.87" as="geometry" />
        </mxCell>
        <mxCell id="XjK1QP2siqseIX729GZj-784" value="samp_enable" style="text;html=1;align=center;verticalAlign=middle;resizable=0;points=[];autosize=1;strokeColor=none;fillColor=none;" vertex="1" parent="1">
          <mxGeometry x="150" y="541" width="100" height="30" as="geometry" />
        </mxCell>
        <mxCell id="XjK1QP2siqseIX729GZj-785" value="5:0" style="text;html=1;align=center;verticalAlign=middle;resizable=0;points=[];autosize=1;strokeColor=none;fillColor=none;" vertex="1" parent="1">
          <mxGeometry x="60" y="340.13" width="40" height="30" as="geometry" />
        </mxCell>
        <mxCell id="XjK1QP2siqseIX729GZj-786" value="" style="verticalLabelPosition=bottom;shadow=0;dashed=0;align=center;html=1;verticalAlign=top;shape=mxgraph.electrical.transmission.bus_width;pointerEvents=1;" vertex="1" parent="1">
          <mxGeometry x="70" y="330.13" width="20" height="20" as="geometry" />
        </mxCell>
        <mxCell id="XjK1QP2siqseIX729GZj-787" value="&lt;div align=&quot;center&quot;&gt;&lt;font style=&quot;font-size: 28px;&quot;&gt;Oscillators&lt;/font&gt;&lt;/div&gt;" style="text;html=1;align=center;verticalAlign=middle;resizable=0;points=[];autosize=1;strokeColor=none;fillColor=none;imageAlign=center;" vertex="1" parent="1">
          <mxGeometry x="-475" y="-50.00000000000001" width="150" height="50" as="geometry" />
        </mxCell>
        <mxCell id="XjK1QP2siqseIX729GZj-788" value="&lt;div align=&quot;center&quot;&gt;&lt;font style=&quot;font-size: 28px;&quot;&gt;Dispatch&lt;/font&gt;&lt;/div&gt;" style="text;html=1;align=center;verticalAlign=middle;resizable=0;points=[];autosize=1;strokeColor=none;fillColor=none;imageAlign=center;" vertex="1" parent="1">
          <mxGeometry x="-905" y="-50" width="130" height="50" as="geometry" />
        </mxCell>
        <mxCell id="XjK1QP2siqseIX729GZj-789" value="&lt;font style=&quot;font-size: 28px;&quot;&gt;Polyphony&lt;/font&gt;" style="text;html=1;align=right;verticalAlign=middle;resizable=0;points=[];autosize=1;strokeColor=none;fillColor=none;imageAlign=center;" vertex="1" parent="1">
          <mxGeometry x="199.01" y="-40.00000000000001" width="150" height="50" as="geometry" />
        </mxCell>
        <mxCell id="XjK1QP2siqseIX729GZj-790" value="" style="pointerEvents=1;verticalLabelPosition=bottom;shadow=0;dashed=0;align=center;html=1;verticalAlign=top;shape=mxgraph.electrical.waveforms.sawtooth;" vertex="1" parent="1">
          <mxGeometry x="-427.5" y="97.63" width="55" height="25" as="geometry" />
        </mxCell>
        <mxCell id="XjK1QP2siqseIX729GZj-791" value="&lt;div&gt;10010100&lt;br&gt;&lt;/div&gt;" style="rounded=0;whiteSpace=wrap;html=1;" vertex="1" parent="1">
          <mxGeometry x="-950" y="308.88" width="60" height="17.69" as="geometry" />
        </mxCell>
        <mxCell id="XjK1QP2siqseIX729GZj-792" value="" style="ellipse;whiteSpace=wrap;html=1;aspect=fixed;" vertex="1" parent="1">
          <mxGeometry x="-781.31" y="87.5" width="42.63" height="42.63" as="geometry" />
        </mxCell>
        <mxCell id="XjK1QP2siqseIX729GZj-793" value="" style="triangle;whiteSpace=wrap;html=1;" vertex="1" parent="1">
          <mxGeometry x="-767.99" y="95.81" width="19.99" height="26" as="geometry" />
        </mxCell>
        <mxCell id="XjK1QP2siqseIX729GZj-794" value="Note" style="shape=table;startSize=20;container=1;collapsible=0;childLayout=tableLayout;strokeColor=default;fontSize=11;" vertex="1" parent="1">
          <mxGeometry x="-776.24" y="492" width="32.49" height="40.13" as="geometry" />
        </mxCell>
        <mxCell id="XjK1QP2siqseIX729GZj-795" value="" style="shape=tableRow;horizontal=0;startSize=0;swimlaneHead=0;swimlaneBody=0;strokeColor=inherit;top=0;left=0;bottom=0;right=0;collapsible=0;dropTarget=0;fillColor=none;points=[[0,0.5],[1,0.5]];portConstraint=eastwest;fontSize=16;" vertex="1" parent="XjK1QP2siqseIX729GZj-794">
          <mxGeometry y="20" width="32.49" height="6" as="geometry" />
        </mxCell>
        <mxCell id="XjK1QP2siqseIX729GZj-796" value="" style="shape=partialRectangle;html=1;whiteSpace=wrap;connectable=0;strokeColor=inherit;overflow=hidden;fillColor=none;top=0;left=0;bottom=0;right=0;pointerEvents=1;fontSize=16;" vertex="1" parent="XjK1QP2siqseIX729GZj-795">
          <mxGeometry width="11" height="6" as="geometry">
            <mxRectangle width="11" height="6" as="alternateBounds" />
          </mxGeometry>
        </mxCell>
        <mxCell id="XjK1QP2siqseIX729GZj-797" value="" style="shape=partialRectangle;html=1;whiteSpace=wrap;connectable=0;strokeColor=inherit;overflow=hidden;fillColor=none;top=0;left=0;bottom=0;right=0;pointerEvents=1;fontSize=16;" vertex="1" parent="XjK1QP2siqseIX729GZj-795">
          <mxGeometry x="11" width="11" height="6" as="geometry">
            <mxRectangle width="11" height="6" as="alternateBounds" />
          </mxGeometry>
        </mxCell>
        <mxCell id="XjK1QP2siqseIX729GZj-798" value="" style="shape=partialRectangle;html=1;whiteSpace=wrap;connectable=0;strokeColor=inherit;overflow=hidden;fillColor=none;top=0;left=0;bottom=0;right=0;pointerEvents=1;fontSize=16;" vertex="1" parent="XjK1QP2siqseIX729GZj-795">
          <mxGeometry x="22" width="10" height="6" as="geometry">
            <mxRectangle width="10" height="6" as="alternateBounds" />
          </mxGeometry>
        </mxCell>
        <mxCell id="XjK1QP2siqseIX729GZj-799" value="" style="shape=tableRow;horizontal=0;startSize=0;swimlaneHead=0;swimlaneBody=0;strokeColor=inherit;top=0;left=0;bottom=0;right=0;collapsible=0;dropTarget=0;fillColor=none;points=[[0,0.5],[1,0.5]];portConstraint=eastwest;fontSize=16;" vertex="1" parent="XjK1QP2siqseIX729GZj-794">
          <mxGeometry y="26" width="32.49" height="8" as="geometry" />
        </mxCell>
        <mxCell id="XjK1QP2siqseIX729GZj-800" value="" style="shape=partialRectangle;html=1;whiteSpace=wrap;connectable=0;strokeColor=inherit;overflow=hidden;fillColor=none;top=0;left=0;bottom=0;right=0;pointerEvents=1;fontSize=16;" vertex="1" parent="XjK1QP2siqseIX729GZj-799">
          <mxGeometry width="11" height="8" as="geometry">
            <mxRectangle width="11" height="8" as="alternateBounds" />
          </mxGeometry>
        </mxCell>
        <mxCell id="XjK1QP2siqseIX729GZj-801" value="" style="shape=partialRectangle;html=1;whiteSpace=wrap;connectable=0;strokeColor=inherit;overflow=hidden;fillColor=none;top=0;left=0;bottom=0;right=0;pointerEvents=1;fontSize=16;" vertex="1" parent="XjK1QP2siqseIX729GZj-799">
          <mxGeometry x="11" width="11" height="8" as="geometry">
            <mxRectangle width="11" height="8" as="alternateBounds" />
          </mxGeometry>
        </mxCell>
        <mxCell id="XjK1QP2siqseIX729GZj-802" value="" style="shape=partialRectangle;html=1;whiteSpace=wrap;connectable=0;strokeColor=inherit;overflow=hidden;fillColor=none;top=0;left=0;bottom=0;right=0;pointerEvents=1;fontSize=16;" vertex="1" parent="XjK1QP2siqseIX729GZj-799">
          <mxGeometry x="22" width="10" height="8" as="geometry">
            <mxRectangle width="10" height="8" as="alternateBounds" />
          </mxGeometry>
        </mxCell>
        <mxCell id="XjK1QP2siqseIX729GZj-803" value="" style="shape=tableRow;horizontal=0;startSize=0;swimlaneHead=0;swimlaneBody=0;strokeColor=inherit;top=0;left=0;bottom=0;right=0;collapsible=0;dropTarget=0;fillColor=none;points=[[0,0.5],[1,0.5]];portConstraint=eastwest;fontSize=16;" vertex="1" parent="XjK1QP2siqseIX729GZj-794">
          <mxGeometry y="34" width="32.49" height="6" as="geometry" />
        </mxCell>
        <mxCell id="XjK1QP2siqseIX729GZj-804" value="" style="shape=partialRectangle;html=1;whiteSpace=wrap;connectable=0;strokeColor=inherit;overflow=hidden;fillColor=none;top=0;left=0;bottom=0;right=0;pointerEvents=1;fontSize=16;" vertex="1" parent="XjK1QP2siqseIX729GZj-803">
          <mxGeometry width="11" height="6" as="geometry">
            <mxRectangle width="11" height="6" as="alternateBounds" />
          </mxGeometry>
        </mxCell>
        <mxCell id="XjK1QP2siqseIX729GZj-805" value="" style="shape=partialRectangle;html=1;whiteSpace=wrap;connectable=0;strokeColor=inherit;overflow=hidden;fillColor=none;top=0;left=0;bottom=0;right=0;pointerEvents=1;fontSize=16;" vertex="1" parent="XjK1QP2siqseIX729GZj-803">
          <mxGeometry x="11" width="11" height="6" as="geometry">
            <mxRectangle width="11" height="6" as="alternateBounds" />
          </mxGeometry>
        </mxCell>
        <mxCell id="XjK1QP2siqseIX729GZj-806" value="" style="shape=partialRectangle;html=1;whiteSpace=wrap;connectable=0;strokeColor=inherit;overflow=hidden;fillColor=none;top=0;left=0;bottom=0;right=0;pointerEvents=1;fontSize=16;" vertex="1" parent="XjK1QP2siqseIX729GZj-803">
          <mxGeometry x="22" width="10" height="6" as="geometry">
            <mxRectangle width="10" height="6" as="alternateBounds" />
          </mxGeometry>
        </mxCell>
        <mxCell id="XjK1QP2siqseIX729GZj-807" value="DAC" style="shadow=0;dashed=0;align=center;html=1;strokeWidth=1;shape=mxgraph.electrical.logic_gates.dual_inline_ic;whiteSpace=wrap;pinSpacing=14;pinLabelType=cust;labelCount=0;" vertex="1" parent="1">
          <mxGeometry x="1120" y="80.13" width="90" height="120" as="geometry" />
        </mxCell>
        <mxCell id="XjK1QP2siqseIX729GZj-808" value="&lt;div align=&quot;center&quot; style=&quot;font-size: 28px;&quot;&gt;External Outputs&lt;/div&gt;" style="text;html=1;align=center;verticalAlign=middle;resizable=0;points=[];autosize=1;strokeColor=none;fillColor=none;imageAlign=center;" vertex="1" parent="1">
          <mxGeometry x="1055" y="-40.00000000000001" width="230" height="50" as="geometry" />
        </mxCell>
        <mxCell id="XjK1QP2siqseIX729GZj-809" value="&lt;div align=&quot;center&quot; style=&quot;font-size: 28px;&quot;&gt;External Inputs&lt;/div&gt;" style="text;html=1;align=center;verticalAlign=middle;resizable=0;points=[];autosize=1;strokeColor=none;fillColor=none;imageAlign=center;" vertex="1" parent="1">
          <mxGeometry x="-1305" y="-50.00000000000001" width="210" height="50" as="geometry" />
        </mxCell>
        <mxCell id="XjK1QP2siqseIX729GZj-810" value="" style="endArrow=none;dashed=1;html=1;rounded=0;" edge="1" parent="1">
          <mxGeometry width="50" height="50" relative="1" as="geometry">
            <mxPoint x="-1100" y="900" as="sourcePoint" />
            <mxPoint x="-1100" y="20.130000000000003" as="targetPoint" />
          </mxGeometry>
        </mxCell>
        <mxCell id="XjK1QP2siqseIX729GZj-811" value="" style="ellipse;whiteSpace=wrap;html=1;aspect=fixed;" vertex="1" parent="1">
          <mxGeometry x="-1240" y="300" width="80" height="80" as="geometry" />
        </mxCell>
        <mxCell id="XjK1QP2siqseIX729GZj-812" value="" style="ellipse;whiteSpace=wrap;html=1;aspect=fixed;" vertex="1" parent="1">
          <mxGeometry x="-1175" y="335" width="10" height="10" as="geometry" />
        </mxCell>
        <mxCell id="XjK1QP2siqseIX729GZj-813" value="" style="ellipse;whiteSpace=wrap;html=1;aspect=fixed;" vertex="1" parent="1">
          <mxGeometry x="-1183" y="316.13" width="10" height="10" as="geometry" />
        </mxCell>
        <mxCell id="XjK1QP2siqseIX729GZj-814" value="" style="ellipse;whiteSpace=wrap;html=1;aspect=fixed;" vertex="1" parent="1">
          <mxGeometry x="-1183" y="355.13" width="10" height="10" as="geometry" />
        </mxCell>
        <mxCell id="XjK1QP2siqseIX729GZj-815" value="" style="ellipse;whiteSpace=wrap;html=1;aspect=fixed;" vertex="1" parent="1">
          <mxGeometry x="-1203" y="364.13" width="10" height="10" as="geometry" />
        </mxCell>
        <mxCell id="XjK1QP2siqseIX729GZj-816" value="" style="ellipse;whiteSpace=wrap;html=1;aspect=fixed;" vertex="1" parent="1">
          <mxGeometry x="-1203" y="305.13" width="10" height="10" as="geometry" />
        </mxCell>
        <mxCell id="XjK1QP2siqseIX729GZj-817" value="" style="endArrow=none;html=1;rounded=0;" edge="1" parent="1">
          <mxGeometry width="50" height="50" relative="1" as="geometry">
            <mxPoint x="-1239" y="330.02" as="sourcePoint" />
            <mxPoint x="-1232" y="330" as="targetPoint" />
          </mxGeometry>
        </mxCell>
        <mxCell id="XjK1QP2siqseIX729GZj-818" value="" style="endArrow=none;html=1;rounded=0;" edge="1" parent="1">
          <mxGeometry width="50" height="50" relative="1" as="geometry">
            <mxPoint x="-1239" y="350.02" as="sourcePoint" />
            <mxPoint x="-1232" y="350" as="targetPoint" />
          </mxGeometry>
        </mxCell>
        <mxCell id="XjK1QP2siqseIX729GZj-819" value="" style="endArrow=none;html=1;rounded=0;" edge="1" parent="1">
          <mxGeometry width="50" height="50" relative="1" as="geometry">
            <mxPoint x="-1231.6" y="350.13" as="sourcePoint" />
            <mxPoint x="-1232" y="330" as="targetPoint" />
          </mxGeometry>
        </mxCell>
        <mxCell id="XjK1QP2siqseIX729GZj-820" value="MIDI" style="text;html=1;align=center;verticalAlign=middle;resizable=0;points=[];autosize=1;strokeColor=none;fillColor=none;fontStyle=0" vertex="1" parent="1">
          <mxGeometry x="-1225" y="270.13" width="50" height="30" as="geometry" />
        </mxCell>
        <mxCell id="XjK1QP2siqseIX729GZj-821" value="" style="endArrow=none;dashed=1;html=1;rounded=0;" edge="1" parent="1">
          <mxGeometry width="50" height="50" relative="1" as="geometry">
            <mxPoint x="1070" y="910" as="sourcePoint" />
            <mxPoint x="1070" y="20" as="targetPoint" />
          </mxGeometry>
        </mxCell>
        <mxCell id="XjK1QP2siqseIX729GZj-822" style="edgeStyle=orthogonalEdgeStyle;rounded=0;orthogonalLoop=1;jettySize=auto;html=1;entryX=0.75;entryY=0;entryDx=0;entryDy=0;" edge="1" parent="1">
          <mxGeometry relative="1" as="geometry">
            <mxPoint x="280" y="80" as="targetPoint" />
            <mxPoint x="280" y="40" as="sourcePoint" />
            <Array as="points">
              <mxPoint x="280" y="40" />
              <mxPoint x="280" y="40" />
            </Array>
          </mxGeometry>
        </mxCell>
        <mxCell id="XjK1QP2siqseIX729GZj-823" value="&lt;div align=&quot;center&quot;&gt;wave_mode&lt;/div&gt;" style="text;html=1;align=center;verticalAlign=middle;resizable=0;points=[];autosize=1;strokeColor=none;fillColor=none;fontStyle=1" vertex="1" parent="1">
          <mxGeometry x="235" y="10.129999999999995" width="90" height="30" as="geometry" />
        </mxCell>
        <mxCell id="XjK1QP2siqseIX729GZj-824" value="2:0" style="text;html=1;align=center;verticalAlign=middle;resizable=0;points=[];autosize=1;strokeColor=none;fillColor=none;" vertex="1" parent="1">
          <mxGeometry x="280" y="45.129999999999995" width="40" height="30" as="geometry" />
        </mxCell>
        <mxCell id="XjK1QP2siqseIX729GZj-825" value="" style="verticalLabelPosition=bottom;shadow=0;dashed=0;align=center;html=1;verticalAlign=top;shape=mxgraph.electrical.transmission.bus_width;pointerEvents=1;" vertex="1" parent="1">
          <mxGeometry x="270" y="50.129999999999995" width="20" height="20" as="geometry" />
        </mxCell>
        <mxCell id="XjK1QP2siqseIX729GZj-826" style="edgeStyle=orthogonalEdgeStyle;rounded=0;orthogonalLoop=1;jettySize=auto;html=1;exitX=1;exitY=0.5;exitDx=0;exitDy=0;" edge="1" parent="1" source="XjK1QP2siqseIX729GZj-827">
          <mxGeometry relative="1" as="geometry">
            <mxPoint x="-840" y="80" as="targetPoint" />
            <Array as="points">
              <mxPoint x="-840" y="140" />
            </Array>
          </mxGeometry>
        </mxCell>
        <mxCell id="XjK1QP2siqseIX729GZj-827" value="mode selector" style="rounded=0;whiteSpace=wrap;html=1;" vertex="1" parent="1">
          <mxGeometry x="-960" y="80.13" width="80" height="120" as="geometry" />
        </mxCell>
        <mxCell id="XjK1QP2siqseIX729GZj-828" value="" style="ellipse;whiteSpace=wrap;html=1;aspect=fixed;" vertex="1" parent="1">
          <mxGeometry x="-950" y="200.13" width="10" height="10" as="geometry" />
        </mxCell>
        <mxCell id="XjK1QP2siqseIX729GZj-829" value="" style="triangle;whiteSpace=wrap;html=1;" vertex="1" parent="1">
          <mxGeometry x="-960" y="180.13" width="10" height="9.87" as="geometry" />
        </mxCell>
        <mxCell id="XjK1QP2siqseIX729GZj-830" style="edgeStyle=orthogonalEdgeStyle;rounded=0;orthogonalLoop=1;jettySize=auto;html=1;exitX=0;exitY=0.5;exitDx=0;exitDy=0;entryX=0;entryY=0.5;entryDx=0;entryDy=0;" edge="1" parent="1">
          <mxGeometry relative="1" as="geometry">
            <mxPoint x="-960" y="140" as="targetPoint" />
            <mxPoint x="-1040" y="140.28571428571433" as="sourcePoint" />
            <Array as="points">
              <mxPoint x="-1040" y="140" />
              <mxPoint x="-1040" y="140" />
            </Array>
          </mxGeometry>
        </mxCell>
        <mxCell id="XjK1QP2siqseIX729GZj-831" value="mode_pb" style="text;html=1;align=center;verticalAlign=middle;resizable=0;points=[];autosize=1;strokeColor=none;fillColor=none;" vertex="1" parent="1">
          <mxGeometry x="-1035" y="110.13" width="70" height="30" as="geometry" />
        </mxCell>
        <mxCell id="XjK1QP2siqseIX729GZj-832" value="" style="rounded=0;whiteSpace=wrap;html=1;" vertex="1" parent="1">
          <mxGeometry x="-1240" y="140.13" width="80" height="19.87" as="geometry" />
        </mxCell>
        <mxCell id="XjK1QP2siqseIX729GZj-833" value="" style="rounded=0;whiteSpace=wrap;html=1;" vertex="1" parent="1">
          <mxGeometry x="-1230" y="130" width="60" height="10" as="geometry" />
        </mxCell>
        <mxCell id="XjK1QP2siqseIX729GZj-834" value="Wave Mode Button" style="text;html=1;align=center;verticalAlign=middle;resizable=0;points=[];autosize=1;strokeColor=none;fillColor=none;fontStyle=0" vertex="1" parent="1">
          <mxGeometry x="-1260" y="100.13" width="120" height="30" as="geometry" />
        </mxCell>
        <mxCell id="XjK1QP2siqseIX729GZj-835" value="wave_mode" style="text;html=1;align=center;verticalAlign=middle;resizable=0;points=[];autosize=1;strokeColor=none;fillColor=none;fontStyle=1" vertex="1" parent="1">
          <mxGeometry x="-885" y="50.129999999999995" width="90" height="30" as="geometry" />
        </mxCell>
        <mxCell id="XjK1QP2siqseIX729GZj-836" value="2:0" style="text;html=1;align=center;verticalAlign=middle;resizable=0;points=[];autosize=1;strokeColor=none;fillColor=none;" vertex="1" parent="1">
          <mxGeometry x="-840" y="95.13" width="40" height="30" as="geometry" />
        </mxCell>
        <mxCell id="XjK1QP2siqseIX729GZj-837" value="" style="verticalLabelPosition=bottom;shadow=0;dashed=0;align=center;html=1;verticalAlign=top;shape=mxgraph.electrical.transmission.bus_width;pointerEvents=1;" vertex="1" parent="1">
          <mxGeometry x="-850" y="100.13" width="20" height="20" as="geometry" />
        </mxCell>
        <mxCell id="XjK1QP2siqseIX729GZj-838" value="" style="pointerEvents=1;verticalLabelPosition=bottom;shadow=0;dashed=0;align=center;html=1;verticalAlign=top;shape=mxgraph.electrical.electro-mechanical.loudspeaker;" vertex="1" parent="1">
          <mxGeometry x="1132" y="414.13" width="80" height="120" as="geometry" />
        </mxCell>
        <mxCell id="XjK1QP2siqseIX729GZj-840" value="&lt;br&gt;&lt;div&gt;&lt;br&gt;&lt;/div&gt;&lt;div&gt;&lt;br&gt;&lt;/div&gt;&lt;div&gt;exp table&lt;/div&gt;" style="rounded=0;whiteSpace=wrap;html=1;imageVerticalAlign=middle;" vertex="1" parent="1">
          <mxGeometry x="400" y="80" width="80" height="120" as="geometry" />
        </mxCell>
        <mxCell id="XjK1QP2siqseIX729GZj-841" value="" style="endArrow=none;html=1;rounded=0;" edge="1" parent="1" source="XjK1QP2siqseIX729GZj-843">
          <mxGeometry width="50" height="50" relative="1" as="geometry">
            <mxPoint x="434.15999999999997" y="142.57" as="sourcePoint" />
            <mxPoint x="433.83000000000004" y="92.57" as="targetPoint" />
            <Array as="points" />
          </mxGeometry>
        </mxCell>
        <mxCell id="XjK1QP2siqseIX729GZj-842" value="" style="endArrow=none;html=1;rounded=0;" edge="1" parent="1" target="XjK1QP2siqseIX729GZj-843">
          <mxGeometry width="50" height="50" relative="1" as="geometry">
            <mxPoint x="434.15999999999997" y="142.57" as="sourcePoint" />
            <mxPoint x="433.83000000000004" y="92.57" as="targetPoint" />
            <Array as="points" />
          </mxGeometry>
        </mxCell>
        <mxCell id="XjK1QP2siqseIX729GZj-843" value="" style="ellipse;whiteSpace=wrap;html=1;aspect=fixed;" vertex="1" parent="1">
          <mxGeometry x="431.44" y="134.56" width="5.13" height="5.13" as="geometry" />
        </mxCell>
        <mxCell id="XjK1QP2siqseIX729GZj-844" style="edgeStyle=orthogonalEdgeStyle;rounded=0;orthogonalLoop=1;jettySize=auto;html=1;exitX=1;exitY=0.5;exitDx=0;exitDy=0;entryX=0;entryY=0.5;entryDx=0;entryDy=0;" edge="1" parent="1" target="XjK1QP2siqseIX729GZj-845">
          <mxGeometry relative="1" as="geometry">
            <mxPoint x="480" y="140" as="sourcePoint" />
          </mxGeometry>
        </mxCell>
        <mxCell id="XjK1QP2siqseIX729GZj-845" value="&lt;br&gt;&lt;div&gt;&lt;br&gt;&lt;/div&gt;&lt;div&gt;&lt;br&gt;&lt;/div&gt;&lt;div&gt;volume multiplier&lt;br&gt;&lt;/div&gt;" style="rounded=0;whiteSpace=wrap;html=1;imageVerticalAlign=middle;" vertex="1" parent="1">
          <mxGeometry x="560" y="80" width="80" height="120" as="geometry" />
        </mxCell>
        <mxCell id="XjK1QP2siqseIX729GZj-846" value="table_output" style="text;html=1;align=center;verticalAlign=middle;resizable=0;points=[];autosize=1;strokeColor=none;fillColor=none;" vertex="1" parent="1">
          <mxGeometry x="475" y="110.13" width="90" height="30" as="geometry" />
        </mxCell>
        <mxCell id="XjK1QP2siqseIX729GZj-847" value="6:0" style="text;html=1;align=center;verticalAlign=middle;resizable=0;points=[];autosize=1;strokeColor=none;fillColor=none;" vertex="1" parent="1">
          <mxGeometry x="500" y="142.13" width="40" height="30" as="geometry" />
        </mxCell>
        <mxCell id="XjK1QP2siqseIX729GZj-848" value="" style="verticalLabelPosition=bottom;shadow=0;dashed=0;align=center;html=1;verticalAlign=top;shape=mxgraph.electrical.transmission.bus_width;pointerEvents=1;" vertex="1" parent="1">
          <mxGeometry x="510" y="130.13" width="20" height="20" as="geometry" />
        </mxCell>
        <mxCell id="XjK1QP2siqseIX729GZj-849" value="" style="pointerEvents=1;verticalLabelPosition=bottom;shadow=0;dashed=0;align=center;html=1;verticalAlign=top;shape=mxgraph.electrical.waveforms.sine_wave;" vertex="1" parent="1">
          <mxGeometry x="568.75" y="110" width="16.25" height="20.13" as="geometry" />
        </mxCell>
        <mxCell id="XjK1QP2siqseIX729GZj-850" value="" style="curved=1;endArrow=classic;html=1;rounded=0;" edge="1" parent="1">
          <mxGeometry width="50" height="50" relative="1" as="geometry">
            <mxPoint x="417.5" y="140.13" as="sourcePoint" />
            <mxPoint x="462.5" y="90.13" as="targetPoint" />
            <Array as="points">
              <mxPoint x="452.5" y="140.13" />
            </Array>
          </mxGeometry>
        </mxCell>
        <mxCell id="XjK1QP2siqseIX729GZj-851" value="wave_table_output" style="text;html=1;align=center;verticalAlign=middle;resizable=0;points=[];autosize=1;strokeColor=none;fillColor=none;" vertex="1" parent="1">
          <mxGeometry x="380" y="9.999999999999996" width="120" height="30" as="geometry" />
        </mxCell>
        <mxCell id="XjK1QP2siqseIX729GZj-852" value="" style="verticalLabelPosition=bottom;shadow=0;dashed=0;align=center;html=1;verticalAlign=top;shape=mxgraph.electrical.transmission.bus_width;pointerEvents=1;" vertex="1" parent="1">
          <mxGeometry x="430" y="30.129999999999995" width="20" height="20" as="geometry" />
        </mxCell>
        <mxCell id="XjK1QP2siqseIX729GZj-853" value="8:0" style="text;html=1;align=center;verticalAlign=middle;resizable=0;points=[];autosize=1;strokeColor=none;fillColor=none;" vertex="1" parent="1">
          <mxGeometry x="420" y="40.129999999999995" width="40" height="30" as="geometry" />
        </mxCell>
        <mxCell id="XjK1QP2siqseIX729GZj-857" value="velocity" style="text;html=1;align=center;verticalAlign=middle;resizable=0;points=[];autosize=1;strokeColor=none;fillColor=none;" vertex="1" parent="1">
          <mxGeometry x="-723" y="282.13" width="60" height="30" as="geometry" />
        </mxCell>
        <mxCell id="XjK1QP2siqseIX729GZj-858" value="" style="shape=flexArrow;endArrow=classic;html=1;rounded=0;strokeWidth=0.8;endWidth=9.423076923076923;endSize=2.25;width=5.576923076923077;" edge="1" parent="1">
          <mxGeometry width="50" height="50" relative="1" as="geometry">
            <mxPoint x="588.75" y="117.6" as="sourcePoint" />
            <mxPoint x="608.75" y="117.47" as="targetPoint" />
          </mxGeometry>
        </mxCell>
        <mxCell id="XjK1QP2siqseIX729GZj-859" value="" style="pointerEvents=1;verticalLabelPosition=bottom;shadow=0;dashed=0;align=center;html=1;verticalAlign=top;shape=mxgraph.electrical.waveforms.sine_wave;" vertex="1" parent="1">
          <mxGeometry x="613.75" y="85" width="16.25" height="65.13" as="geometry" />
        </mxCell>
        <mxCell id="XjK1QP2siqseIX729GZj-860" value="velocity" style="text;html=1;align=center;verticalAlign=middle;resizable=0;points=[];autosize=1;strokeColor=none;fillColor=none;" vertex="1" parent="1">
          <mxGeometry x="-470" y="205.13" width="60" height="30" as="geometry" />
        </mxCell>
        <mxCell id="XjK1QP2siqseIX729GZj-861" value="" style="verticalLabelPosition=bottom;shadow=0;dashed=0;align=center;html=1;verticalAlign=top;shape=mxgraph.electrical.transmission.bus_width;pointerEvents=1;" vertex="1" parent="1">
          <mxGeometry x="-683" y="301.13" width="20" height="20" as="geometry" />
        </mxCell>
        <mxCell id="XjK1QP2siqseIX729GZj-862" value="7:0" style="text;html=1;align=center;verticalAlign=middle;resizable=0;points=[];autosize=1;strokeColor=none;fillColor=none;" vertex="1" parent="1">
          <mxGeometry x="-680" y="305" width="40" height="30" as="geometry" />
        </mxCell>
        <mxCell id="XjK1QP2siqseIX729GZj-863" value="" style="verticalLabelPosition=bottom;shadow=0;dashed=0;align=center;html=1;verticalAlign=top;shape=mxgraph.electrical.transmission.bus_width;pointerEvents=1;" vertex="1" parent="1">
          <mxGeometry x="-420" y="210.13" width="20" height="20" as="geometry" />
        </mxCell>
        <mxCell id="_PkVqTtLlogOHhefFod5-7" style="edgeStyle=orthogonalEdgeStyle;rounded=0;orthogonalLoop=1;jettySize=auto;html=1;exitX=0.5;exitY=0;exitDx=0;exitDy=0;entryX=0.5;entryY=1;entryDx=0;entryDy=0;" edge="1" parent="1">
          <mxGeometry relative="1" as="geometry">
            <mxPoint x="-21" y="480.1299999999999" as="sourcePoint" />
            <mxPoint x="-21" y="200" as="targetPoint" />
          </mxGeometry>
        </mxCell>
        <mxCell id="XjK1QP2siqseIX729GZj-867" value="&lt;div&gt;&lt;br&gt;&lt;/div&gt;&lt;div&gt;&lt;br&gt;&lt;/div&gt;&lt;div&gt;&lt;br&gt;&lt;/div&gt;&lt;div&gt;&lt;br&gt;&lt;/div&gt;&lt;div&gt;envelope generator&lt;/div&gt;" style="rounded=0;whiteSpace=wrap;html=1;" vertex="1" parent="1">
          <mxGeometry x="-80" y="480.1299999999999" width="80" height="120" as="geometry" />
        </mxCell>
        <mxCell id="XjK1QP2siqseIX729GZj-868" value="6:2" style="text;html=1;align=center;verticalAlign=middle;resizable=0;points=[];autosize=1;strokeColor=none;fillColor=none;" vertex="1" parent="1">
          <mxGeometry x="-420" y="211.13" width="40" height="30" as="geometry" />
        </mxCell>
        <mxCell id="XjK1QP2siqseIX729GZj-869" value="" style="verticalLabelPosition=bottom;shadow=0;dashed=0;align=center;html=1;verticalAlign=top;shape=mxgraph.electrical.transmission.bus_width;pointerEvents=1;" vertex="1" parent="1">
          <mxGeometry x="9.870000000000005" y="251.13" width="20" height="20" as="geometry" />
        </mxCell>
        <mxCell id="XjK1QP2siqseIX729GZj-870" value="&lt;div align=&quot;right&quot;&gt;vel_sel&lt;/div&gt;" style="text;html=1;align=right;verticalAlign=middle;resizable=0;points=[];autosize=1;strokeColor=none;fillColor=none;" vertex="1" parent="1">
          <mxGeometry x="-18" y="230" width="60" height="30" as="geometry" />
        </mxCell>
        <mxCell id="XjK1QP2siqseIX729GZj-871" value="6:0" style="text;html=1;align=center;verticalAlign=middle;resizable=0;points=[];autosize=1;strokeColor=none;fillColor=none;" vertex="1" parent="1">
          <mxGeometry x="-1" y="263.13" width="40" height="30" as="geometry" />
        </mxCell>
        <mxCell id="XjK1QP2siqseIX729GZj-872" style="edgeStyle=orthogonalEdgeStyle;rounded=0;orthogonalLoop=1;jettySize=auto;html=1;exitX=1;exitY=0.75;exitDx=0;exitDy=0;entryX=-0.008;entryY=0.913;entryDx=0;entryDy=0;entryPerimeter=0;" edge="1" parent="1" target="XjK1QP2siqseIX729GZj-683">
          <mxGeometry relative="1" as="geometry">
            <mxPoint x="-360" y="190" as="sourcePoint" />
            <mxPoint x="-280" y="190" as="targetPoint" />
          </mxGeometry>
        </mxCell>
        <mxCell id="XjK1QP2siqseIX729GZj-873" value="" style="verticalLabelPosition=bottom;shadow=0;dashed=0;align=center;html=1;verticalAlign=top;shape=mxgraph.electrical.transmission.bus_width;pointerEvents=1;" vertex="1" parent="1">
          <mxGeometry x="-330" y="180.13" width="20" height="20" as="geometry" />
        </mxCell>
        <mxCell id="XjK1QP2siqseIX729GZj-874" value="current_velocity[0]" style="text;html=1;align=center;verticalAlign=middle;resizable=0;points=[];autosize=1;strokeColor=none;fillColor=none;" vertex="1" parent="1">
          <mxGeometry x="-367.5" y="157" width="120" height="30" as="geometry" />
        </mxCell>
        <mxCell id="XjK1QP2siqseIX729GZj-875" value="" style="verticalLabelPosition=bottom;shadow=0;dashed=0;align=center;html=1;verticalAlign=top;shape=mxgraph.electrical.transmission.bus_width;pointerEvents=1;" vertex="1" parent="1">
          <mxGeometry x="-31" y="400" width="20" height="20" as="geometry" />
        </mxCell>
        <mxCell id="XjK1QP2siqseIX729GZj-876" value="&lt;div align=&quot;left&quot;&gt;new_note_velocity&lt;/div&gt;" style="text;html=1;align=left;verticalAlign=middle;resizable=0;points=[];autosize=1;strokeColor=none;fillColor=none;" vertex="1" parent="1">
          <mxGeometry x="-22" y="374.13" width="120" height="30" as="geometry" />
        </mxCell>
        <mxCell id="XjK1QP2siqseIX729GZj-877" value="6:0" style="text;html=1;align=center;verticalAlign=middle;resizable=0;points=[];autosize=1;strokeColor=none;fillColor=none;" vertex="1" parent="1">
          <mxGeometry x="-22" y="395" width="40" height="30" as="geometry" />
        </mxCell>
        <mxCell id="XjK1QP2siqseIX729GZj-878" value="6:0" style="text;html=1;align=center;verticalAlign=middle;resizable=0;points=[];autosize=1;strokeColor=none;fillColor=none;" vertex="1" parent="1">
          <mxGeometry x="-340" y="189.87" width="40" height="30" as="geometry" />
        </mxCell>
        <mxCell id="XjK1QP2siqseIX729GZj-879" value="current_velocity" style="text;html=1;align=center;verticalAlign=middle;resizable=0;points=[];autosize=1;strokeColor=none;fillColor=none;" vertex="1" parent="1">
          <mxGeometry x="-183" y="159.13" width="110" height="30" as="geometry" />
        </mxCell>
        <mxCell id="XjK1QP2siqseIX729GZj-880" value="N-1:0 6:0" style="text;html=1;align=center;verticalAlign=middle;resizable=0;points=[];autosize=1;strokeColor=none;fillColor=none;" vertex="1" parent="1">
          <mxGeometry x="-155" y="189.13" width="70" height="30" as="geometry" />
        </mxCell>
        <mxCell id="XjK1QP2siqseIX729GZj-881" value="" style="verticalLabelPosition=bottom;shadow=0;dashed=0;align=center;html=1;verticalAlign=top;shape=mxgraph.electrical.transmission.bus_width;pointerEvents=1;" vertex="1" parent="1">
          <mxGeometry x="-130" y="179.13" width="20" height="20" as="geometry" />
        </mxCell>
        <mxCell id="XjK1QP2siqseIX729GZj-882" value="" style="shape=image;html=1;verticalAlign=top;verticalLabelPosition=bottom;labelBackgroundColor=#ffffff;imageAspect=0;aspect=fixed;image=https://cdn2.iconfinder.com/data/icons/user-interface-169/32/mail-128.png;strokeWidth=1;" vertex="1" parent="1">
          <mxGeometry x="-60" y="498.26" width="40" height="40" as="geometry" />
        </mxCell>
        <mxCell id="XjK1QP2siqseIX729GZj-883" value="new_note_velocity" style="text;html=1;align=center;verticalAlign=middle;resizable=0;points=[];autosize=1;strokeColor=none;fillColor=none;" vertex="1" parent="1">
          <mxGeometry x="-180" y="211.13" width="120" height="30" as="geometry" />
        </mxCell>
        <mxCell id="XjK1QP2siqseIX729GZj-884" value="N-1:0 6:0" style="text;html=1;align=center;verticalAlign=middle;resizable=0;points=[];autosize=1;strokeColor=none;fillColor=none;" vertex="1" parent="1">
          <mxGeometry x="-155" y="240" width="70" height="30" as="geometry" />
        </mxCell>
        <mxCell id="XjK1QP2siqseIX729GZj-885" value="" style="verticalLabelPosition=bottom;shadow=0;dashed=0;align=center;html=1;verticalAlign=top;shape=mxgraph.electrical.transmission.bus_width;pointerEvents=1;" vertex="1" parent="1">
          <mxGeometry x="-130" y="230.13" width="20" height="20" as="geometry" />
        </mxCell>
        <mxCell id="XjK1QP2siqseIX729GZj-886" value="new_note_velocity[0]" style="text;html=1;align=center;verticalAlign=middle;resizable=0;points=[];autosize=1;strokeColor=none;fillColor=none;" vertex="1" parent="1">
          <mxGeometry x="-390" y="210.13" width="140" height="30" as="geometry" />
        </mxCell>
        <mxCell id="XjK1QP2siqseIX729GZj-887" value="6:0" style="text;html=1;align=center;verticalAlign=middle;resizable=0;points=[];autosize=1;strokeColor=none;fillColor=none;" vertex="1" parent="1">
          <mxGeometry x="-338" y="240.13" width="40" height="30" as="geometry" />
        </mxCell>
        <mxCell id="XjK1QP2siqseIX729GZj-888" value="" style="verticalLabelPosition=bottom;shadow=0;dashed=0;align=center;html=1;verticalAlign=top;shape=mxgraph.electrical.transmission.bus_width;pointerEvents=1;" vertex="1" parent="1">
          <mxGeometry x="-330" y="230.13" width="20" height="20" as="geometry" />
        </mxCell>
        <mxCell id="XjK1QP2siqseIX729GZj-889" style="edgeStyle=orthogonalEdgeStyle;rounded=0;orthogonalLoop=1;jettySize=auto;html=1;exitX=0.25;exitY=0;exitDx=0;exitDy=0;" edge="1" parent="1" source="XjK1QP2siqseIX729GZj-894">
          <mxGeometry relative="1" as="geometry">
            <mxPoint x="-520" y="340" as="targetPoint" />
            <Array as="points">
              <mxPoint x="-420" y="340" />
            </Array>
          </mxGeometry>
        </mxCell>
        <mxCell id="XjK1QP2siqseIX729GZj-892" style="edgeStyle=orthogonalEdgeStyle;rounded=0;orthogonalLoop=1;jettySize=auto;html=1;" edge="1" parent="1" target="XjK1QP2siqseIX729GZj-894">
          <mxGeometry relative="1" as="geometry">
            <mxPoint x="-407" y="481.1300000000001" as="targetPoint" />
            <mxPoint x="-520" y="520" as="sourcePoint" />
            <Array as="points">
              <mxPoint x="-410" y="520" />
            </Array>
          </mxGeometry>
        </mxCell>
        <mxCell id="XjK1QP2siqseIX729GZj-893" style="edgeStyle=orthogonalEdgeStyle;rounded=0;orthogonalLoop=1;jettySize=auto;html=1;entryX=0.75;entryY=1;entryDx=0;entryDy=0;" edge="1" parent="1" target="XjK1QP2siqseIX729GZj-894">
          <mxGeometry relative="1" as="geometry">
            <mxPoint x="-280" y="520" as="sourcePoint" />
            <Array as="points">
              <mxPoint x="-380" y="520" />
            </Array>
            <mxPoint x="-380" y="490" as="targetPoint" />
          </mxGeometry>
        </mxCell>
        <mxCell id="DF9lUOYaFaJKa1eaZOuU-13" style="edgeStyle=orthogonalEdgeStyle;rounded=0;orthogonalLoop=1;jettySize=auto;html=1;exitX=0.75;exitY=0;exitDx=0;exitDy=0;" edge="1" parent="1" source="XjK1QP2siqseIX729GZj-894">
          <mxGeometry relative="1" as="geometry">
            <mxPoint x="-280" y="320" as="targetPoint" />
            <Array as="points">
              <mxPoint x="-380" y="320" />
            </Array>
          </mxGeometry>
        </mxCell>
        <mxCell id="XjK1QP2siqseIX729GZj-894" value="saw counter 1" style="rounded=0;whiteSpace=wrap;html=1;" vertex="1" parent="1">
          <mxGeometry x="-440" y="360.13" width="80" height="120" as="geometry" />
        </mxCell>
        <mxCell id="XjK1QP2siqseIX729GZj-895" value="" style="ellipse;whiteSpace=wrap;html=1;aspect=fixed;" vertex="1" parent="1">
          <mxGeometry x="-430" y="480.13" width="10" height="10" as="geometry" />
        </mxCell>
        <mxCell id="XjK1QP2siqseIX729GZj-896" value="" style="triangle;whiteSpace=wrap;html=1;" vertex="1" parent="1">
          <mxGeometry x="-440" y="460.13" width="10" height="9.87" as="geometry" />
        </mxCell>
        <mxCell id="XjK1QP2siqseIX729GZj-897" value="new_max" style="text;html=1;align=center;verticalAlign=middle;resizable=0;points=[];autosize=1;strokeColor=none;fillColor=none;" vertex="1" parent="1">
          <mxGeometry x="-515" y="420.13" width="70" height="30" as="geometry" />
        </mxCell>
        <mxCell id="XjK1QP2siqseIX729GZj-898" value="19:0" style="text;html=1;align=center;verticalAlign=middle;resizable=0;points=[];autosize=1;strokeColor=none;fillColor=none;" vertex="1" parent="1">
          <mxGeometry x="-505" y="450.13" width="50" height="30" as="geometry" />
        </mxCell>
        <mxCell id="XjK1QP2siqseIX729GZj-899" value="" style="verticalLabelPosition=bottom;shadow=0;dashed=0;align=center;html=1;verticalAlign=top;shape=mxgraph.electrical.transmission.bus_width;pointerEvents=1;" vertex="1" parent="1">
          <mxGeometry x="-490" y="440.13" width="20" height="20" as="geometry" />
        </mxCell>
        <mxCell id="XjK1QP2siqseIX729GZj-900" value="avail[1]" style="text;html=1;align=center;verticalAlign=middle;resizable=0;points=[];autosize=1;strokeColor=none;fillColor=none;" vertex="1" parent="1">
          <mxGeometry x="-510" y="310.13" width="60" height="30" as="geometry" />
        </mxCell>
        <mxCell id="XjK1QP2siqseIX729GZj-901" value="start[1]" style="text;html=1;align=center;verticalAlign=middle;resizable=0;points=[];autosize=1;strokeColor=none;fillColor=none;" vertex="1" parent="1">
          <mxGeometry x="-510" y="360.13" width="60" height="30" as="geometry" />
        </mxCell>
        <mxCell id="XjK1QP2siqseIX729GZj-902" value="end" style="text;html=1;align=center;verticalAlign=middle;resizable=0;points=[];autosize=1;strokeColor=none;fillColor=none;fontStyle=0" vertex="1" parent="1">
          <mxGeometry x="-500" y="390.13" width="40" height="30" as="geometry" />
        </mxCell>
        <mxCell id="XjK1QP2siqseIX729GZj-903" style="edgeStyle=orthogonalEdgeStyle;rounded=0;orthogonalLoop=1;jettySize=auto;html=1;exitX=1;exitY=0.25;exitDx=0;exitDy=0;" edge="1" parent="1">
          <mxGeometry relative="1" as="geometry">
            <mxPoint x="-440" y="419.44" as="targetPoint" />
            <mxPoint x="-520" y="419.44" as="sourcePoint" />
          </mxGeometry>
        </mxCell>
        <mxCell id="XjK1QP2siqseIX729GZj-904" style="edgeStyle=orthogonalEdgeStyle;rounded=0;orthogonalLoop=1;jettySize=auto;html=1;exitX=1;exitY=0.5;exitDx=0;exitDy=0;" edge="1" parent="1">
          <mxGeometry relative="1" as="geometry">
            <mxPoint x="-440" y="450.2758620689656" as="targetPoint" />
            <mxPoint x="-520" y="450" as="sourcePoint" />
            <Array as="points">
              <mxPoint x="-479" y="451" />
            </Array>
          </mxGeometry>
        </mxCell>
        <mxCell id="XjK1QP2siqseIX729GZj-905" style="edgeStyle=orthogonalEdgeStyle;rounded=0;orthogonalLoop=1;jettySize=auto;html=1;exitX=1;exitY=0.5;exitDx=0;exitDy=0;" edge="1" parent="1">
          <mxGeometry relative="1" as="geometry">
            <mxPoint x="-440" y="390.2758620689656" as="targetPoint" />
            <mxPoint x="-520" y="390" as="sourcePoint" />
            <Array as="points">
              <mxPoint x="-479" y="391" />
            </Array>
          </mxGeometry>
        </mxCell>
        <mxCell id="XjK1QP2siqseIX729GZj-906" style="edgeStyle=orthogonalEdgeStyle;rounded=0;orthogonalLoop=1;jettySize=auto;html=1;exitX=1;exitY=0.75;exitDx=0;exitDy=0;entryX=0;entryY=0.75;entryDx=0;entryDy=0;" edge="1" parent="1">
          <mxGeometry relative="1" as="geometry">
            <mxPoint x="-360" y="417" as="sourcePoint" />
            <mxPoint x="-280" y="417" as="targetPoint" />
          </mxGeometry>
        </mxCell>
        <mxCell id="XjK1QP2siqseIX729GZj-907" style="edgeStyle=orthogonalEdgeStyle;rounded=0;orthogonalLoop=1;jettySize=auto;html=1;exitX=1;exitY=0.25;exitDx=0;exitDy=0;entryX=0;entryY=0.25;entryDx=0;entryDy=0;" edge="1" parent="1">
          <mxGeometry relative="1" as="geometry">
            <mxPoint x="-360" y="371" as="sourcePoint" />
            <mxPoint x="-280" y="371" as="targetPoint" />
          </mxGeometry>
        </mxCell>
        <mxCell id="XjK1QP2siqseIX729GZj-909" value="max[1]" style="text;html=1;align=center;verticalAlign=middle;resizable=0;points=[];autosize=1;strokeColor=none;fillColor=none;" vertex="1" parent="1">
          <mxGeometry x="-350" y="387.13" width="60" height="30" as="geometry" />
        </mxCell>
        <mxCell id="XjK1QP2siqseIX729GZj-911" value="" style="verticalLabelPosition=bottom;shadow=0;dashed=0;align=center;html=1;verticalAlign=top;shape=mxgraph.electrical.transmission.bus_width;pointerEvents=1;" vertex="1" parent="1">
          <mxGeometry x="-330" y="407.13" width="20" height="20" as="geometry" />
        </mxCell>
        <mxCell id="XjK1QP2siqseIX729GZj-912" value="count[1]" style="text;html=1;align=center;verticalAlign=middle;resizable=0;points=[];autosize=1;strokeColor=none;fillColor=none;" vertex="1" parent="1">
          <mxGeometry x="-355" y="341.13" width="70" height="30" as="geometry" />
        </mxCell>
        <mxCell id="XjK1QP2siqseIX729GZj-913" value="19:0" style="text;html=1;align=center;verticalAlign=middle;resizable=0;points=[];autosize=1;strokeColor=none;fillColor=none;" vertex="1" parent="1">
          <mxGeometry x="-345" y="371.13" width="50" height="30" as="geometry" />
        </mxCell>
        <mxCell id="XjK1QP2siqseIX729GZj-914" value="" style="verticalLabelPosition=bottom;shadow=0;dashed=0;align=center;html=1;verticalAlign=top;shape=mxgraph.electrical.transmission.bus_width;pointerEvents=1;" vertex="1" parent="1">
          <mxGeometry x="-330" y="361.13" width="20" height="20" as="geometry" />
        </mxCell>
        <mxCell id="XjK1QP2siqseIX729GZj-917" value="" style="pointerEvents=1;verticalLabelPosition=bottom;shadow=0;dashed=0;align=center;html=1;verticalAlign=top;shape=mxgraph.electrical.waveforms.sawtooth;" vertex="1" parent="1">
          <mxGeometry x="-427.5" y="377.63" width="55" height="25" as="geometry" />
        </mxCell>
        <mxCell id="XjK1QP2siqseIX729GZj-918" value="velocity" style="text;html=1;align=center;verticalAlign=middle;resizable=0;points=[];autosize=1;strokeColor=none;fillColor=none;" vertex="1" parent="1">
          <mxGeometry x="-470" y="485.13" width="60" height="30" as="geometry" />
        </mxCell>
        <mxCell id="XjK1QP2siqseIX729GZj-919" value="" style="verticalLabelPosition=bottom;shadow=0;dashed=0;align=center;html=1;verticalAlign=top;shape=mxgraph.electrical.transmission.bus_width;pointerEvents=1;" vertex="1" parent="1">
          <mxGeometry x="-420" y="490.13" width="20" height="20" as="geometry" />
        </mxCell>
        <mxCell id="XjK1QP2siqseIX729GZj-920" value="6:2" style="text;html=1;align=center;verticalAlign=middle;resizable=0;points=[];autosize=1;strokeColor=none;fillColor=none;" vertex="1" parent="1">
          <mxGeometry x="-420" y="490.13" width="40" height="30" as="geometry" />
        </mxCell>
        <mxCell id="XjK1QP2siqseIX729GZj-921" style="edgeStyle=orthogonalEdgeStyle;rounded=0;orthogonalLoop=1;jettySize=auto;html=1;exitX=1;exitY=0.75;exitDx=0;exitDy=0;entryX=0;entryY=0.75;entryDx=0;entryDy=0;" edge="1" parent="1">
          <mxGeometry relative="1" as="geometry">
            <mxPoint x="-360" y="470" as="sourcePoint" />
            <mxPoint x="-280" y="470" as="targetPoint" />
          </mxGeometry>
        </mxCell>
        <mxCell id="XjK1QP2siqseIX729GZj-922" value="" style="verticalLabelPosition=bottom;shadow=0;dashed=0;align=center;html=1;verticalAlign=top;shape=mxgraph.electrical.transmission.bus_width;pointerEvents=1;" vertex="1" parent="1">
          <mxGeometry x="-330" y="460.13" width="20" height="20" as="geometry" />
        </mxCell>
        <mxCell id="XjK1QP2siqseIX729GZj-923" value="current_velocity[1]" style="text;html=1;align=center;verticalAlign=middle;resizable=0;points=[];autosize=1;strokeColor=none;fillColor=none;" vertex="1" parent="1">
          <mxGeometry x="-367.5" y="437" width="120" height="30" as="geometry" />
        </mxCell>
        <mxCell id="XjK1QP2siqseIX729GZj-924" value="6:0" style="text;html=1;align=center;verticalAlign=middle;resizable=0;points=[];autosize=1;strokeColor=none;fillColor=none;" vertex="1" parent="1">
          <mxGeometry x="-340" y="470.13" width="40" height="30" as="geometry" />
        </mxCell>
        <mxCell id="XjK1QP2siqseIX729GZj-925" value="new_note_velocity[1]" style="text;html=1;align=center;verticalAlign=middle;resizable=0;points=[];autosize=1;strokeColor=none;fillColor=none;" vertex="1" parent="1">
          <mxGeometry x="-390" y="488.63" width="140" height="30" as="geometry" />
        </mxCell>
        <mxCell id="XjK1QP2siqseIX729GZj-926" value="6:0" style="text;html=1;align=center;verticalAlign=middle;resizable=0;points=[];autosize=1;strokeColor=none;fillColor=none;" vertex="1" parent="1">
          <mxGeometry x="-340" y="520.13" width="40" height="30" as="geometry" />
        </mxCell>
        <mxCell id="XjK1QP2siqseIX729GZj-927" value="" style="verticalLabelPosition=bottom;shadow=0;dashed=0;align=center;html=1;verticalAlign=top;shape=mxgraph.electrical.transmission.bus_width;pointerEvents=1;" vertex="1" parent="1">
          <mxGeometry x="-328" y="510.13" width="20" height="20" as="geometry" />
        </mxCell>
        <mxCell id="XjK1QP2siqseIX729GZj-928" style="edgeStyle=orthogonalEdgeStyle;rounded=0;orthogonalLoop=1;jettySize=auto;html=1;exitX=0.25;exitY=0;exitDx=0;exitDy=0;" edge="1" parent="1" source="XjK1QP2siqseIX729GZj-933">
          <mxGeometry relative="1" as="geometry">
            <mxPoint x="-520" y="659.8699999999999" as="targetPoint" />
            <Array as="points">
              <mxPoint x="-420" y="659.8699999999999" />
            </Array>
          </mxGeometry>
        </mxCell>
        <mxCell id="XjK1QP2siqseIX729GZj-933" value="saw counter N-1" style="rounded=0;whiteSpace=wrap;html=1;" vertex="1" parent="1">
          <mxGeometry x="-440" y="680" width="80" height="120" as="geometry" />
        </mxCell>
        <mxCell id="XjK1QP2siqseIX729GZj-934" value="" style="ellipse;whiteSpace=wrap;html=1;aspect=fixed;" vertex="1" parent="1">
          <mxGeometry x="-430" y="800" width="10" height="10" as="geometry" />
        </mxCell>
        <mxCell id="XjK1QP2siqseIX729GZj-935" value="" style="triangle;whiteSpace=wrap;html=1;" vertex="1" parent="1">
          <mxGeometry x="-440" y="780" width="10" height="9.87" as="geometry" />
        </mxCell>
        <mxCell id="XjK1QP2siqseIX729GZj-936" value="new_max" style="text;html=1;align=center;verticalAlign=middle;resizable=0;points=[];autosize=1;strokeColor=none;fillColor=none;" vertex="1" parent="1">
          <mxGeometry x="-515" y="740" width="70" height="30" as="geometry" />
        </mxCell>
        <mxCell id="XjK1QP2siqseIX729GZj-937" value="19:0" style="text;html=1;align=center;verticalAlign=middle;resizable=0;points=[];autosize=1;strokeColor=none;fillColor=none;" vertex="1" parent="1">
          <mxGeometry x="-505" y="770" width="50" height="30" as="geometry" />
        </mxCell>
        <mxCell id="XjK1QP2siqseIX729GZj-938" value="" style="verticalLabelPosition=bottom;shadow=0;dashed=0;align=center;html=1;verticalAlign=top;shape=mxgraph.electrical.transmission.bus_width;pointerEvents=1;" vertex="1" parent="1">
          <mxGeometry x="-490" y="760" width="20" height="20" as="geometry" />
        </mxCell>
        <mxCell id="XjK1QP2siqseIX729GZj-939" value="avail[N-1]" style="text;html=1;align=center;verticalAlign=middle;resizable=0;points=[];autosize=1;strokeColor=none;fillColor=none;" vertex="1" parent="1">
          <mxGeometry x="-515" y="630" width="70" height="30" as="geometry" />
        </mxCell>
        <mxCell id="XjK1QP2siqseIX729GZj-940" value="start[N-1]" style="text;html=1;align=center;verticalAlign=middle;resizable=0;points=[];autosize=1;strokeColor=none;fillColor=none;" vertex="1" parent="1">
          <mxGeometry x="-515" y="680" width="70" height="30" as="geometry" />
        </mxCell>
        <mxCell id="XjK1QP2siqseIX729GZj-941" value="end" style="text;html=1;align=center;verticalAlign=middle;resizable=0;points=[];autosize=1;strokeColor=none;fillColor=none;fontStyle=0" vertex="1" parent="1">
          <mxGeometry x="-500" y="710" width="40" height="30" as="geometry" />
        </mxCell>
        <mxCell id="XjK1QP2siqseIX729GZj-942" style="edgeStyle=orthogonalEdgeStyle;rounded=0;orthogonalLoop=1;jettySize=auto;html=1;exitX=1;exitY=0.25;exitDx=0;exitDy=0;" edge="1" parent="1">
          <mxGeometry relative="1" as="geometry">
            <mxPoint x="-440" y="739.31" as="targetPoint" />
            <mxPoint x="-520" y="739.31" as="sourcePoint" />
          </mxGeometry>
        </mxCell>
        <mxCell id="XjK1QP2siqseIX729GZj-943" style="edgeStyle=orthogonalEdgeStyle;rounded=0;orthogonalLoop=1;jettySize=auto;html=1;exitX=1;exitY=0.5;exitDx=0;exitDy=0;" edge="1" parent="1">
          <mxGeometry relative="1" as="geometry">
            <mxPoint x="-440" y="770.1458620689655" as="targetPoint" />
            <mxPoint x="-520" y="769.8699999999999" as="sourcePoint" />
            <Array as="points">
              <mxPoint x="-479" y="770.8699999999999" />
            </Array>
          </mxGeometry>
        </mxCell>
        <mxCell id="XjK1QP2siqseIX729GZj-944" style="edgeStyle=orthogonalEdgeStyle;rounded=0;orthogonalLoop=1;jettySize=auto;html=1;exitX=1;exitY=0.5;exitDx=0;exitDy=0;" edge="1" parent="1">
          <mxGeometry relative="1" as="geometry">
            <mxPoint x="-440" y="710.1458620689655" as="targetPoint" />
            <mxPoint x="-520" y="709.8699999999999" as="sourcePoint" />
            <Array as="points">
              <mxPoint x="-479" y="710.8699999999999" />
            </Array>
          </mxGeometry>
        </mxCell>
        <mxCell id="XjK1QP2siqseIX729GZj-945" style="edgeStyle=orthogonalEdgeStyle;rounded=0;orthogonalLoop=1;jettySize=auto;html=1;exitX=1;exitY=0.75;exitDx=0;exitDy=0;entryX=0;entryY=0.75;entryDx=0;entryDy=0;" edge="1" parent="1">
          <mxGeometry relative="1" as="geometry">
            <mxPoint x="-360" y="736.8699999999999" as="sourcePoint" />
            <mxPoint x="-280" y="736.8699999999999" as="targetPoint" />
          </mxGeometry>
        </mxCell>
        <mxCell id="XjK1QP2siqseIX729GZj-946" style="edgeStyle=orthogonalEdgeStyle;rounded=0;orthogonalLoop=1;jettySize=auto;html=1;exitX=1;exitY=0.25;exitDx=0;exitDy=0;entryX=0;entryY=0.25;entryDx=0;entryDy=0;" edge="1" parent="1">
          <mxGeometry relative="1" as="geometry">
            <mxPoint x="-360" y="690.8699999999999" as="sourcePoint" />
            <mxPoint x="-280" y="690.8699999999999" as="targetPoint" />
          </mxGeometry>
        </mxCell>
        <mxCell id="XjK1QP2siqseIX729GZj-947" value="max[N-1]" style="text;html=1;align=center;verticalAlign=middle;resizable=0;points=[];autosize=1;strokeColor=none;fillColor=none;" vertex="1" parent="1">
          <mxGeometry x="-355" y="707" width="70" height="30" as="geometry" />
        </mxCell>
        <mxCell id="XjK1QP2siqseIX729GZj-948" value="19:0" style="text;html=1;align=center;verticalAlign=middle;resizable=0;points=[];autosize=1;strokeColor=none;fillColor=none;" vertex="1" parent="1">
          <mxGeometry x="-345" y="737" width="50" height="30" as="geometry" />
        </mxCell>
        <mxCell id="XjK1QP2siqseIX729GZj-949" value="" style="verticalLabelPosition=bottom;shadow=0;dashed=0;align=center;html=1;verticalAlign=top;shape=mxgraph.electrical.transmission.bus_width;pointerEvents=1;" vertex="1" parent="1">
          <mxGeometry x="-330" y="727" width="20" height="20" as="geometry" />
        </mxCell>
        <mxCell id="XjK1QP2siqseIX729GZj-950" value="count[N-1]" style="text;html=1;align=center;verticalAlign=middle;resizable=0;points=[];autosize=1;strokeColor=none;fillColor=none;" vertex="1" parent="1">
          <mxGeometry x="-360" y="661" width="80" height="30" as="geometry" />
        </mxCell>
        <mxCell id="XjK1QP2siqseIX729GZj-951" value="19:0" style="text;html=1;align=center;verticalAlign=middle;resizable=0;points=[];autosize=1;strokeColor=none;fillColor=none;" vertex="1" parent="1">
          <mxGeometry x="-345" y="691" width="50" height="30" as="geometry" />
        </mxCell>
        <mxCell id="XjK1QP2siqseIX729GZj-952" value="" style="verticalLabelPosition=bottom;shadow=0;dashed=0;align=center;html=1;verticalAlign=top;shape=mxgraph.electrical.transmission.bus_width;pointerEvents=1;" vertex="1" parent="1">
          <mxGeometry x="-330" y="681" width="20" height="20" as="geometry" />
        </mxCell>
        <mxCell id="XjK1QP2siqseIX729GZj-955" value="" style="pointerEvents=1;verticalLabelPosition=bottom;shadow=0;dashed=0;align=center;html=1;verticalAlign=top;shape=mxgraph.electrical.waveforms.sawtooth;" vertex="1" parent="1">
          <mxGeometry x="-427.5" y="697.5" width="55" height="25" as="geometry" />
        </mxCell>
        <mxCell id="XjK1QP2siqseIX729GZj-959" style="edgeStyle=orthogonalEdgeStyle;rounded=0;orthogonalLoop=1;jettySize=auto;html=1;exitX=1;exitY=0.75;exitDx=0;exitDy=0;entryX=0;entryY=0.75;entryDx=0;entryDy=0;" edge="1" parent="1">
          <mxGeometry relative="1" as="geometry">
            <mxPoint x="-360" y="789.8699999999999" as="sourcePoint" />
            <mxPoint x="-280" y="789.8699999999999" as="targetPoint" />
          </mxGeometry>
        </mxCell>
        <mxCell id="XjK1QP2siqseIX729GZj-960" value="" style="verticalLabelPosition=bottom;shadow=0;dashed=0;align=center;html=1;verticalAlign=top;shape=mxgraph.electrical.transmission.bus_width;pointerEvents=1;" vertex="1" parent="1">
          <mxGeometry x="-330" y="780" width="20" height="20" as="geometry" />
        </mxCell>
        <mxCell id="XjK1QP2siqseIX729GZj-961" value="current_velocity[N-1]" style="text;html=1;align=center;verticalAlign=middle;resizable=0;points=[];autosize=1;strokeColor=none;fillColor=none;" vertex="1" parent="1">
          <mxGeometry x="-372.5" y="756.8699999999999" width="130" height="30" as="geometry" />
        </mxCell>
        <mxCell id="XjK1QP2siqseIX729GZj-962" value="6:0" style="text;html=1;align=center;verticalAlign=middle;resizable=0;points=[];autosize=1;strokeColor=none;fillColor=none;" vertex="1" parent="1">
          <mxGeometry x="-340" y="789.9999999999999" width="40" height="30" as="geometry" />
        </mxCell>
        <mxCell id="XjK1QP2siqseIX729GZj-963" value="new_note_velocity[N-1]" style="text;html=1;align=right;verticalAlign=middle;resizable=0;points=[];autosize=1;strokeColor=none;fillColor=none;" vertex="1" parent="1">
          <mxGeometry x="-395" y="810" width="150" height="30" as="geometry" />
        </mxCell>
        <mxCell id="XjK1QP2siqseIX729GZj-964" value="6:0" style="text;html=1;align=center;verticalAlign=middle;resizable=0;points=[];autosize=1;strokeColor=none;fillColor=none;" vertex="1" parent="1">
          <mxGeometry x="-340" y="839.9999999999999" width="40" height="30" as="geometry" />
        </mxCell>
        <mxCell id="XjK1QP2siqseIX729GZj-965" value="" style="verticalLabelPosition=bottom;shadow=0;dashed=0;align=center;html=1;verticalAlign=top;shape=mxgraph.electrical.transmission.bus_width;pointerEvents=1;" vertex="1" parent="1">
          <mxGeometry x="-330" y="830" width="20" height="20" as="geometry" />
        </mxCell>
        <mxCell id="XjK1QP2siqseIX729GZj-966" style="edgeStyle=orthogonalEdgeStyle;rounded=0;orthogonalLoop=1;jettySize=auto;html=1;exitX=0;exitY=0.5;exitDx=0;exitDy=0;entryX=1;entryY=0.5;entryDx=0;entryDy=0;" edge="1" parent="1" source="XjK1QP2siqseIX729GZj-967" target="XjK1QP2siqseIX729GZj-867">
          <mxGeometry relative="1" as="geometry" />
        </mxCell>
        <mxCell id="XjK1QP2siqseIX729GZj-967" value="envelope clock divider" style="rounded=0;whiteSpace=wrap;html=1;" vertex="1" parent="1">
          <mxGeometry x="80" y="480.13" width="80" height="120" as="geometry" />
        </mxCell>
        <mxCell id="XjK1QP2siqseIX729GZj-968" value="" style="ellipse;whiteSpace=wrap;html=1;aspect=fixed;" vertex="1" parent="1">
          <mxGeometry x="90" y="600.13" width="10" height="10" as="geometry" />
        </mxCell>
        <mxCell id="XjK1QP2siqseIX729GZj-969" value="" style="triangle;whiteSpace=wrap;html=1;" vertex="1" parent="1">
          <mxGeometry x="80" y="580.13" width="10" height="9.87" as="geometry" />
        </mxCell>
        <mxCell id="XjK1QP2siqseIX729GZj-972" value="" style="ellipse;whiteSpace=wrap;html=1;aspect=fixed;fillColor=#000000;" vertex="1" parent="1">
          <mxGeometry x="114.87" y="305.13" width="10" height="10" as="geometry" />
        </mxCell>
        <mxCell id="XjK1QP2siqseIX729GZj-975" value="envelope_pulse" style="text;html=1;align=center;verticalAlign=middle;resizable=0;points=[];autosize=1;strokeColor=none;fillColor=none;" vertex="1" parent="1">
          <mxGeometry x="-15" y="541" width="110" height="30" as="geometry" />
        </mxCell>
        <mxCell id="XjK1QP2siqseIX729GZj-976" value="" style="ellipse;whiteSpace=wrap;html=1;aspect=fixed;fillColor=#000000;" vertex="1" parent="1">
          <mxGeometry x="195" y="535" width="10" height="10" as="geometry" />
        </mxCell>
        <mxCell id="_PkVqTtLlogOHhefFod5-4" value="19:0" style="text;html=1;align=center;verticalAlign=middle;resizable=0;points=[];autosize=1;strokeColor=none;fillColor=none;" vertex="1" parent="1">
          <mxGeometry x="-345" y="416.13" width="50" height="30" as="geometry" />
        </mxCell>
        <mxCell id="_PkVqTtLlogOHhefFod5-6" style="edgeStyle=orthogonalEdgeStyle;rounded=0;orthogonalLoop=1;jettySize=auto;html=1;exitX=1;exitY=0.5;exitDx=0;exitDy=0;entryX=0.5;entryY=1;entryDx=0;entryDy=0;" edge="1" parent="1" source="_PkVqTtLlogOHhefFod5-5" target="XjK1QP2siqseIX729GZj-840">
          <mxGeometry relative="1" as="geometry" />
        </mxCell>
        <mxCell id="_PkVqTtLlogOHhefFod5-5" value="" style="ellipse;whiteSpace=wrap;html=1;aspect=fixed;fillColor=#000000;" vertex="1" parent="1">
          <mxGeometry x="-40.129999999999995" y="255.13" width="10" height="10" as="geometry" />
        </mxCell>
        <mxCell id="_PkVqTtLlogOHhefFod5-10" style="edgeStyle=orthogonalEdgeStyle;rounded=0;orthogonalLoop=1;jettySize=auto;html=1;" edge="1" parent="1">
          <mxGeometry relative="1" as="geometry">
            <mxPoint x="-410" y="800" as="targetPoint" />
            <mxPoint x="-520" y="840" as="sourcePoint" />
            <Array as="points">
              <mxPoint x="-410" y="840" />
            </Array>
          </mxGeometry>
        </mxCell>
        <mxCell id="_PkVqTtLlogOHhefFod5-12" value="velocity" style="text;html=1;align=center;verticalAlign=middle;resizable=0;points=[];autosize=1;strokeColor=none;fillColor=none;" vertex="1" parent="1">
          <mxGeometry x="-470" y="805.13" width="60" height="30" as="geometry" />
        </mxCell>
        <mxCell id="_PkVqTtLlogOHhefFod5-13" value="" style="verticalLabelPosition=bottom;shadow=0;dashed=0;align=center;html=1;verticalAlign=top;shape=mxgraph.electrical.transmission.bus_width;pointerEvents=1;" vertex="1" parent="1">
          <mxGeometry x="-420" y="810.13" width="20" height="20" as="geometry" />
        </mxCell>
        <mxCell id="_PkVqTtLlogOHhefFod5-14" value="6:2" style="text;html=1;align=center;verticalAlign=middle;resizable=0;points=[];autosize=1;strokeColor=none;fillColor=none;" vertex="1" parent="1">
          <mxGeometry x="-420" y="810.13" width="40" height="30" as="geometry" />
        </mxCell>
        <mxCell id="_PkVqTtLlogOHhefFod5-15" value="" style="rounded=0;whiteSpace=wrap;html=1;" vertex="1" parent="1">
          <mxGeometry x="-1240" y="540.13" width="80" height="19.87" as="geometry" />
        </mxCell>
        <mxCell id="_PkVqTtLlogOHhefFod5-16" value="" style="rounded=0;whiteSpace=wrap;html=1;" vertex="1" parent="1">
          <mxGeometry x="-1230" y="530" width="60" height="10" as="geometry" />
        </mxCell>
        <mxCell id="_PkVqTtLlogOHhefFod5-17" value="Clear Button" style="text;html=1;align=center;verticalAlign=middle;resizable=0;points=[];autosize=1;strokeColor=none;fillColor=none;fontStyle=0" vertex="1" parent="1">
          <mxGeometry x="-1245" y="500.13" width="90" height="30" as="geometry" />
        </mxCell>
        <mxCell id="_PkVqTtLlogOHhefFod5-20" value="&lt;div align=&quot;left&quot;&gt;en (system enable)&lt;/div&gt;" style="text;html=1;align=left;verticalAlign=middle;resizable=0;points=[];autosize=1;strokeColor=none;fillColor=none;fontStyle=0" vertex="1" parent="1">
          <mxGeometry x="-1260" y="60.129999999999995" width="120" height="30" as="geometry" />
        </mxCell>
        <mxCell id="_PkVqTtLlogOHhefFod5-21" value="" style="ellipse;whiteSpace=wrap;html=1;aspect=fixed;" vertex="1" parent="1">
          <mxGeometry x="-1290" y="50.129999999999995" width="10" height="10" as="geometry" />
        </mxCell>
        <mxCell id="_PkVqTtLlogOHhefFod5-22" value="" style="triangle;whiteSpace=wrap;html=1;" vertex="1" parent="1">
          <mxGeometry x="-1300" y="30.129999999999995" width="10" height="9.87" as="geometry" />
        </mxCell>
        <mxCell id="_PkVqTtLlogOHhefFod5-24" value="&lt;div align=&quot;left&quot;&gt;MHz10 (10 MHz system clock)&lt;/div&gt;" style="text;html=1;align=left;verticalAlign=middle;resizable=0;points=[];autosize=1;strokeColor=none;fillColor=none;fontStyle=0" vertex="1" parent="1">
          <mxGeometry x="-1280" y="20.129999999999995" width="190" height="30" as="geometry" />
        </mxCell>
        <mxCell id="_PkVqTtLlogOHhefFod5-26" value="nrst (active low async reset)" style="text;html=1;align=left;verticalAlign=middle;resizable=0;points=[];autosize=1;strokeColor=none;fillColor=none;fontStyle=0" vertex="1" parent="1">
          <mxGeometry x="-1270" y="40.129999999999995" width="170" height="30" as="geometry" />
        </mxCell>
        <mxCell id="_PkVqTtLlogOHhefFod5-29" style="edgeStyle=orthogonalEdgeStyle;rounded=0;orthogonalLoop=1;jettySize=auto;html=1;entryX=0.75;entryY=1;entryDx=0;entryDy=0;" edge="1" parent="1" target="XjK1QP2siqseIX729GZj-933">
          <mxGeometry relative="1" as="geometry">
            <mxPoint x="-280" y="840" as="sourcePoint" />
            <Array as="points">
              <mxPoint x="-380" y="840" />
            </Array>
            <mxPoint x="-380" y="800" as="targetPoint" />
          </mxGeometry>
        </mxCell>
        <mxCell id="_PkVqTtLlogOHhefFod5-31" value="&lt;div align=&quot;center&quot;&gt;clear&lt;/div&gt;" style="text;html=1;align=center;verticalAlign=middle;resizable=0;points=[];autosize=1;strokeColor=none;fillColor=none;" vertex="1" parent="1">
          <mxGeometry x="-427" y="20" width="50" height="30" as="geometry" />
        </mxCell>
        <mxCell id="_PkVqTtLlogOHhefFod5-32" style="edgeStyle=orthogonalEdgeStyle;rounded=0;orthogonalLoop=1;jettySize=auto;html=1;entryX=0.75;entryY=0;entryDx=0;entryDy=0;" edge="1" parent="1">
          <mxGeometry relative="1" as="geometry">
            <mxPoint x="-401" y="320" as="sourcePoint" />
            <Array as="points">
              <mxPoint x="-401" y="320" />
            </Array>
            <mxPoint x="-401" y="360.1300000000001" as="targetPoint" />
          </mxGeometry>
        </mxCell>
        <mxCell id="_PkVqTtLlogOHhefFod5-33" value="&lt;div align=&quot;center&quot;&gt;clear&lt;/div&gt;" style="text;html=1;align=center;verticalAlign=middle;resizable=0;points=[];autosize=1;strokeColor=none;fillColor=none;" vertex="1" parent="1">
          <mxGeometry x="-426" y="300" width="50" height="30" as="geometry" />
        </mxCell>
        <mxCell id="_PkVqTtLlogOHhefFod5-34" style="edgeStyle=orthogonalEdgeStyle;rounded=0;orthogonalLoop=1;jettySize=auto;html=1;entryX=0.75;entryY=0;entryDx=0;entryDy=0;" edge="1" parent="1">
          <mxGeometry relative="1" as="geometry">
            <mxPoint x="-401" y="640" as="sourcePoint" />
            <Array as="points">
              <mxPoint x="-401" y="640" />
            </Array>
            <mxPoint x="-401" y="680" as="targetPoint" />
          </mxGeometry>
        </mxCell>
        <mxCell id="_PkVqTtLlogOHhefFod5-35" value="&lt;div align=&quot;center&quot;&gt;clear&lt;/div&gt;" style="text;html=1;align=center;verticalAlign=middle;resizable=0;points=[];autosize=1;strokeColor=none;fillColor=none;" vertex="1" parent="1">
          <mxGeometry x="-426" y="620" width="50" height="30" as="geometry" />
        </mxCell>
        <mxCell id="DF9lUOYaFaJKa1eaZOuU-2" value="key_pressed[0]" style="text;html=1;align=center;verticalAlign=middle;resizable=0;points=[];autosize=1;strokeColor=none;fillColor=none;" vertex="1" parent="1">
          <mxGeometry x="-372" y="11.129999999999995" width="100" height="30" as="geometry" />
        </mxCell>
        <mxCell id="DF9lUOYaFaJKa1eaZOuU-3" value="0:0" style="text;html=1;align=center;verticalAlign=middle;resizable=0;points=[];autosize=1;strokeColor=none;fillColor=none;" vertex="1" parent="1">
          <mxGeometry x="-342" y="41.129999999999995" width="40" height="30" as="geometry" />
        </mxCell>
        <mxCell id="DF9lUOYaFaJKa1eaZOuU-4" value="" style="verticalLabelPosition=bottom;shadow=0;dashed=0;align=center;html=1;verticalAlign=top;shape=mxgraph.electrical.transmission.bus_width;pointerEvents=1;" vertex="1" parent="1">
          <mxGeometry x="-332" y="31.129999999999995" width="20" height="20" as="geometry" />
        </mxCell>
        <mxCell id="DF9lUOYaFaJKa1eaZOuU-5" value="count" style="text;html=1;align=center;verticalAlign=middle;resizable=0;points=[];autosize=1;strokeColor=none;fillColor=none;" vertex="1" parent="1">
          <mxGeometry x="-146" y="11.129999999999995" width="50" height="30" as="geometry" />
        </mxCell>
        <mxCell id="DF9lUOYaFaJKa1eaZOuU-6" value="" style="verticalLabelPosition=bottom;shadow=0;dashed=0;align=center;html=1;verticalAlign=top;shape=mxgraph.electrical.transmission.bus_width;pointerEvents=1;" vertex="1" parent="1">
          <mxGeometry x="-131" y="31.129999999999995" width="20" height="20" as="geometry" />
        </mxCell>
        <mxCell id="DF9lUOYaFaJKa1eaZOuU-7" value="N-1:0 0:0" style="text;html=1;align=center;verticalAlign=middle;resizable=0;points=[];autosize=1;strokeColor=none;fillColor=none;" vertex="1" parent="1">
          <mxGeometry x="-156" y="43.129999999999995" width="70" height="30" as="geometry" />
        </mxCell>
        <mxCell id="DF9lUOYaFaJKa1eaZOuU-9" value="" style="verticalLabelPosition=bottom;shadow=0;dashed=0;align=center;html=1;verticalAlign=top;shape=mxgraph.electrical.transmission.bus_width;pointerEvents=1;" vertex="1" parent="1">
          <mxGeometry x="-59" y="267" width="20" height="20" as="geometry" />
        </mxCell>
        <mxCell id="DF9lUOYaFaJKa1eaZOuU-10" value="0:0" style="text;html=1;align=center;verticalAlign=middle;resizable=0;points=[];autosize=1;strokeColor=none;fillColor=none;" vertex="1" parent="1">
          <mxGeometry x="-83" y="281" width="40" height="30" as="geometry" />
        </mxCell>
        <mxCell id="DF9lUOYaFaJKa1eaZOuU-11" value="key_pressed_sel" style="text;html=1;align=center;verticalAlign=middle;resizable=0;points=[];autosize=1;strokeColor=none;fillColor=none;" vertex="1" parent="1">
          <mxGeometry x="-154" y="256" width="110" height="30" as="geometry" />
        </mxCell>
        <mxCell id="DF9lUOYaFaJKa1eaZOuU-14" value="key_pressed[1]" style="text;html=1;align=center;verticalAlign=middle;resizable=0;points=[];autosize=1;strokeColor=none;fillColor=none;" vertex="1" parent="1">
          <mxGeometry x="-389" y="290.13" width="100" height="30" as="geometry" />
        </mxCell>
        <mxCell id="DF9lUOYaFaJKa1eaZOuU-15" value="0:0" style="text;html=1;align=center;verticalAlign=middle;resizable=0;points=[];autosize=1;strokeColor=none;fillColor=none;" vertex="1" parent="1">
          <mxGeometry x="-359" y="320.13" width="40" height="30" as="geometry" />
        </mxCell>
        <mxCell id="DF9lUOYaFaJKa1eaZOuU-16" value="" style="verticalLabelPosition=bottom;shadow=0;dashed=0;align=center;html=1;verticalAlign=top;shape=mxgraph.electrical.transmission.bus_width;pointerEvents=1;" vertex="1" parent="1">
          <mxGeometry x="-349" y="310.13" width="20" height="20" as="geometry" />
        </mxCell>
        <mxCell id="DF9lUOYaFaJKa1eaZOuU-17" style="edgeStyle=orthogonalEdgeStyle;rounded=0;orthogonalLoop=1;jettySize=auto;html=1;exitX=0.75;exitY=0;exitDx=0;exitDy=0;" edge="1" parent="1">
          <mxGeometry relative="1" as="geometry">
            <mxPoint x="-280" y="639" as="targetPoint" />
            <mxPoint x="-380" y="679" as="sourcePoint" />
            <Array as="points">
              <mxPoint x="-380" y="639" />
            </Array>
          </mxGeometry>
        </mxCell>
        <mxCell id="DF9lUOYaFaJKa1eaZOuU-18" value="key_pressed[N-1]" style="text;html=1;align=center;verticalAlign=middle;resizable=0;points=[];autosize=1;strokeColor=none;fillColor=none;" vertex="1" parent="1">
          <mxGeometry x="-388" y="609.13" width="120" height="30" as="geometry" />
        </mxCell>
        <mxCell id="DF9lUOYaFaJKa1eaZOuU-19" value="0:0" style="text;html=1;align=center;verticalAlign=middle;resizable=0;points=[];autosize=1;strokeColor=none;fillColor=none;" vertex="1" parent="1">
          <mxGeometry x="-359" y="639.13" width="40" height="30" as="geometry" />
        </mxCell>
        <mxCell id="DF9lUOYaFaJKa1eaZOuU-20" value="" style="verticalLabelPosition=bottom;shadow=0;dashed=0;align=center;html=1;verticalAlign=top;shape=mxgraph.electrical.transmission.bus_width;pointerEvents=1;" vertex="1" parent="1">
          <mxGeometry x="-349" y="629.13" width="20" height="20" as="geometry" />
        </mxCell>
        <mxCell id="uJYNl0HwECX2s5yZ-Udy-1" value="Amplifier" style="shadow=0;dashed=0;align=center;html=1;strokeWidth=1;shape=mxgraph.electrical.logic_gates.dual_inline_ic;whiteSpace=wrap;pinSpacing=18;pinLabelType=cust;labelCount=0;" vertex="1" parent="1">
          <mxGeometry x="1120" y="272.13" width="90" height="74.87" as="geometry" />
        </mxCell>
        <mxCell id="uJYNl0HwECX2s5yZ-Udy-2" style="edgeStyle=orthogonalEdgeStyle;rounded=0;orthogonalLoop=1;jettySize=auto;html=1;exitX=0;exitY=0;exitDx=0;exitDy=105;exitPerimeter=0;entryX=0;entryY=0;entryDx=0;entryDy=9;entryPerimeter=0;" edge="1" parent="1" source="XjK1QP2siqseIX729GZj-807" target="uJYNl0HwECX2s5yZ-Udy-1">
          <mxGeometry relative="1" as="geometry">
            <Array as="points">
              <mxPoint x="1092" y="185" />
              <mxPoint x="1092" y="281" />
            </Array>
          </mxGeometry>
        </mxCell>
        <mxCell id="Rfu2smVh-OJppRVmdiNi-2" value="" style="verticalLabelPosition=bottom;shadow=0;dashed=0;align=center;html=1;verticalAlign=top;shape=mxgraph.electrical.transmission.bus_width;pointerEvents=1;" vertex="1" parent="1">
          <mxGeometry x="-75" y="382" width="20" height="20" as="geometry" />
        </mxCell>
        <mxCell id="Rfu2smVh-OJppRVmdiNi-3" value="4:0" style="text;html=1;align=center;verticalAlign=middle;resizable=0;points=[];autosize=1;strokeColor=none;fillColor=none;" vertex="1" parent="1">
          <mxGeometry x="-102" y="381" width="35" height="26" as="geometry" />
        </mxCell>
        <mxCell id="Rfu2smVh-OJppRVmdiNi-4" value="&lt;div align=&quot;left&quot;&gt;pedal_depth&lt;/div&gt;" style="text;html=1;align=left;verticalAlign=middle;resizable=0;points=[];autosize=1;strokeColor=none;fillColor=none;" vertex="1" parent="1">
          <mxGeometry x="-138" y="369.13" width="84" height="26" as="geometry" />
        </mxCell>
        <mxCell id="Rfu2smVh-OJppRVmdiNi-5" value="" style="verticalLabelPosition=bottom;shadow=0;dashed=0;align=center;html=1;verticalAlign=top;shape=mxgraph.electrical.transmission.bus_width;pointerEvents=1;" vertex="1" parent="1">
          <mxGeometry x="-648" y="362.13" width="20" height="20" as="geometry" />
        </mxCell>
        <mxCell id="Rfu2smVh-OJppRVmdiNi-6" value="4:0" style="text;html=1;align=center;verticalAlign=middle;resizable=0;points=[];autosize=1;strokeColor=none;fillColor=none;" vertex="1" parent="1">
          <mxGeometry x="-677" y="366.13" width="35" height="26" as="geometry" />
        </mxCell>
        <mxCell id="Rfu2smVh-OJppRVmdiNi-7" value="&lt;div align=&quot;left&quot;&gt;pedal_depth&lt;/div&gt;" style="text;html=1;align=left;verticalAlign=middle;resizable=0;points=[];autosize=1;strokeColor=none;fillColor=none;" vertex="1" parent="1">
          <mxGeometry x="-711" y="349.26" width="84" height="26" as="geometry" />
        </mxCell>
        <mxCell id="Rfu2smVh-OJppRVmdiNi-20" value="sustain_pressed" style="text;html=1;align=center;verticalAlign=middle;resizable=0;points=[];autosize=1;strokeColor=none;fillColor=none;" vertex="1" parent="1">
          <mxGeometry x="-759" y="241.13" width="105" height="26" as="geometry" />
        </mxCell>
        <mxCell id="Rfu2smVh-OJppRVmdiNi-21" style="edgeStyle=orthogonalEdgeStyle;rounded=0;orthogonalLoop=1;jettySize=auto;html=1;exitX=1;exitY=0.25;exitDx=0;exitDy=0;" edge="1" parent="1">
          <mxGeometry relative="1" as="geometry">
            <mxPoint x="-440" y="475.44" as="targetPoint" />
            <mxPoint x="-520" y="475.44" as="sourcePoint" />
          </mxGeometry>
        </mxCell>
        <mxCell id="Rfu2smVh-OJppRVmdiNi-22" style="edgeStyle=orthogonalEdgeStyle;rounded=0;orthogonalLoop=1;jettySize=auto;html=1;exitX=1;exitY=0.25;exitDx=0;exitDy=0;" edge="1" parent="1">
          <mxGeometry relative="1" as="geometry">
            <mxPoint x="-439" y="795.31" as="targetPoint" />
            <mxPoint x="-519" y="795.31" as="sourcePoint" />
          </mxGeometry>
        </mxCell>
        <mxCell id="Rfu2smVh-OJppRVmdiNi-23" value="x75" style="text;html=1;align=center;verticalAlign=middle;resizable=0;points=[];autosize=1;strokeColor=none;fillColor=none;" vertex="1" parent="1">
          <mxGeometry x="-405" y="567" width="37" height="26" as="geometry" />
        </mxCell>
        <mxCell id="Rfu2smVh-OJppRVmdiNi-24" style="edgeStyle=orthogonalEdgeStyle;rounded=0;orthogonalLoop=1;jettySize=auto;html=1;exitX=0;exitY=0;exitDx=0;exitDy=63;exitPerimeter=0;entryX=0;entryY=0.4;entryDx=0;entryDy=0;entryPerimeter=0;" edge="1" parent="1" source="uJYNl0HwECX2s5yZ-Udy-1" target="XjK1QP2siqseIX729GZj-838">
          <mxGeometry relative="1" as="geometry" />
        </mxCell>
      </root>
    </mxGraphModel>
  </diagram>
</mxfile>
